<svg width="171" height="41" viewBox="0 0 171 41" fill="none" xmlns="http://www.w3.org/2000/svg">
<path d="M5.94588 5.94248C2.8301 9.03673 1.54004 12.5271 1.54004 12.5271C20.7885 9.50952 25.953 14.6448 25.953 14.6448C24.4451 12.2731 22.3722 9.96594 20.2959 7.96368C16.4016 4.20631 12.5305 1.53751 12.5305 1.53751C9.79195 2.66911 7.62778 4.27264 5.94588 5.94248Z" fill="url(#paint0_linear_50_118)"/>
<path d="M20.2355 -1.33514e-05C15.8761 -1.33514e-05 12.5304 1.53897 12.5304 1.53897C28.2738 13.016 28.297 20.3008 28.297 20.3008C28.9068 17.5562 29.073 14.4593 29.0204 11.5769C28.9223 6.16437 28.0714 1.54066 28.0714 1.54066C25.3363 0.405607 22.6718 0.00859833 20.3009 -1.33514e-05H20.2355Z" fill="url(#paint1_linear_50_118)"/>
<path d="M25.953 25.9565C28.3247 24.4477 30.6336 22.3749 32.6341 20.2994C36.3932 16.4043 39.0603 12.5323 39.0603 12.5323C37.9287 9.79547 36.326 7.63048 34.6544 5.94858C31.5619 2.8328 28.0707 1.54355 28.0707 1.54355C31.0891 20.7911 25.953 25.9565 25.953 25.9565Z" fill="url(#paint2_linear_50_118)"/>
<path d="M20.2958 28.2902C23.0412 28.9 26.1389 29.0661 29.0205 29.0136C34.4322 28.9154 39.0568 28.0655 39.0568 28.0655C40.1918 25.3295 40.5897 22.6641 40.5983 20.2941C40.6121 15.9037 39.0568 12.5227 39.0568 12.5227C27.584 28.2652 20.3001 28.2825 20.3001 28.2825" fill="url(#paint3_linear_50_118)"/>
<path d="M14.6455 25.9478C16.1552 28.3186 18.2272 30.6266 20.3018 32.6289C24.1995 36.3854 28.0637 39.0508 28.0637 39.0508C30.8014 37.9192 32.9725 36.3182 34.6544 34.6492C37.7693 31.5541 39.0585 28.0637 39.0585 28.0637C19.8109 31.0813 14.6455 25.9478 14.6455 25.9478Z" fill="url(#paint4_linear_50_118)"/>
<path d="M11.5737 29.0136C11.6718 34.4253 12.5356 39.0447 12.5356 39.0447C14.5534 39.8827 16.5246 40.3202 18.371 40.4958H22.2438C25.6455 40.1617 28.0637 39.0491 28.0637 39.0491C12.3186 27.5694 12.297 20.2838 12.297 20.2838C11.6882 23.0275 11.5211 26.1252 11.5737 29.0085" fill="url(#paint5_linear_50_118)"/>
<path d="M7.97138 20.2897C4.21401 24.1857 1.54175 28.0628 1.54175 28.0628C2.67421 30.7996 4.28033 32.9595 5.95017 34.6414C9.04442 37.7563 12.5357 39.0464 12.5357 39.0464C9.51808 19.798 14.6516 14.6326 14.6516 14.6326C12.2799 16.1422 9.97192 18.2134 7.97138 20.2897Z" fill="url(#paint6_linear_50_118)"/>
<path d="M11.5771 11.5745C6.16535 11.6727 1.53991 12.5304 1.53991 12.5304C0.40486 15.2664 0.00871454 17.9232 0.000102656 20.294C-0.0145375 24.6844 1.54163 28.0654 1.54163 28.0654C13.0187 12.3212 20.3018 12.2988 20.3018 12.2988C17.8672 11.7579 15.1536 11.5659 12.558 11.5659C12.229 11.5659 11.9017 11.5693 11.5771 11.5745Z" fill="url(#paint7_linear_50_118)"/>
<path d="M73.2041 17.7178C73.5683 17.7178 73.8069 17.4439 73.8069 17.1503C73.8069 17.0047 73.7724 16.8574 73.6975 16.73L71.3956 12.1614C72.3911 11.7308 73.0292 10.8197 73.1662 9.60624C73.1765 9.52787 73.1868 9.4495 73.2032 9.22645L73.2041 8.51597C73.2041 8.67271 73.3272 5.18662 70.0013 5.18662H66.8916C66.5643 5.18662 66.2698 5.46048 66.2698 5.82562V17.0779C66.2698 17.4439 66.5436 17.7178 66.8916 17.7178C67.2395 17.7178 67.5314 17.4439 67.5314 17.0779V12.449H69.7266C69.8558 12.449 69.9832 12.449 70.1124 12.4309L72.6185 17.3526C72.7097 17.5163 72.9293 17.7178 73.2041 17.7178ZM70.0013 6.44826C71.2638 6.44826 71.9777 7.23539 71.9777 8.522L71.9786 9.09469C71.9786 10.3693 71.2552 11.171 69.9927 11.171H67.5314V6.44826H70.0013Z" fill="#17412D"/>
<path d="M96.7474 17.0779V8.11294L102.455 17.4069C102.602 17.6265 102.821 17.7178 102.986 17.7178C103.279 17.7178 103.626 17.4611 103.645 17.1503V17.04V5.82562C103.645 5.46048 103.334 5.18662 102.986 5.18662C102.639 5.18662 102.364 5.46048 102.364 5.82562V14.7734L96.6742 5.49665C96.5837 5.35111 96.4184 5.18662 96.1617 5.18662C95.7957 5.18662 95.4866 5.47856 95.4866 5.84457V17.0779C95.4866 17.4431 95.7768 17.7178 96.1247 17.7178C96.4726 17.7178 96.7474 17.4431 96.7474 17.0779Z" fill="#17412D"/>
<path d="M113.927 5.18662C113.579 5.18662 113.305 5.46048 113.305 5.82562V10.8024H107.871V5.82562C107.871 5.46048 107.598 5.18662 107.249 5.18662C106.902 5.18662 106.609 5.46048 106.609 5.82562V17.0779C106.609 17.4439 106.902 17.7178 107.249 17.7178C107.598 17.7178 107.871 17.4439 107.871 17.0779V12.0649H113.305V17.0779C113.305 17.4439 113.579 17.7178 113.927 17.7178C114.274 17.7178 114.585 17.4439 114.585 17.0779V5.82562C114.585 5.46048 114.274 5.18662 113.927 5.18662Z" fill="#17412D"/>
<path d="M122.033 5.00335C118.977 5.00335 117.55 7.93053 117.55 11.4425C117.55 14.9561 118.977 17.9014 122.033 17.9014C125.087 17.9014 126.515 14.9561 126.515 11.4425C126.515 7.93053 125.087 5.00335 122.033 5.00335ZM122.033 16.5837C119.966 16.5837 118.941 14.2611 118.941 11.4425C118.941 8.62551 119.966 6.3201 122.033 6.3201C124.099 6.3201 125.124 8.62551 125.124 11.4425C125.124 14.2611 124.099 16.5837 122.033 16.5837Z" fill="#17412D"/>
<path d="M138.15 5.82627C138.15 5.46113 137.877 5.18727 137.529 5.18727C137.182 5.18727 136.889 5.46113 136.889 5.82627V12.2482C136.889 14.476 136.014 16.5928 133.828 16.6023H133.813C131.618 16.6006 130.741 14.4795 130.741 12.2482V5.82627C130.741 5.46113 130.449 5.18727 130.101 5.18727C129.753 5.18727 129.479 5.46113 129.479 5.82627V12.4307C129.479 15.0186 130.55 17.8786 133.777 17.9001V17.9019H133.826C137.074 17.8941 138.15 15.0255 138.15 12.4307V5.82627Z" fill="#17412D"/>
<path d="M59.2544 17.8934C59.2759 17.8925 59.2966 17.8899 59.3181 17.8891C59.3284 17.8873 59.3396 17.8873 59.3508 17.8856C62.3098 17.6695 63.3045 14.924 63.3045 12.4309V11.692C63.3045 11.6739 63.3045 11.6558 63.3028 11.6377L63.3045 11.6256C63.3045 11.1132 63.0694 10.8023 62.5751 10.8023H59.3009C58.9504 10.8023 58.6593 11.0771 58.6593 11.4431C58.6593 11.8091 58.9504 12.0648 59.3009 12.0648H62.0429V12.2474C62.0429 14.3995 61.2273 16.4474 59.2027 16.593C59.1338 16.5973 59.0907 16.6007 59.0416 16.6007C56.9739 16.6007 55.7691 14.2609 55.7691 11.4431C55.7691 8.62526 56.9584 6.31986 59.0244 6.31986C60.6719 6.31986 61.0017 7.27147 61.6045 7.27147C61.9525 7.27147 62.2444 6.99675 62.2444 6.63161C62.2444 6.46626 62.1893 6.28369 62.0618 6.15623C61.2394 5.33294 60.1035 5.0031 59.0244 5.0031C55.9689 5.0031 54.3774 7.93028 54.3774 11.4431C54.3774 14.9274 55.9629 17.8512 58.9702 17.8994V17.9011C58.9839 17.9011 58.996 17.9003 59.0089 17.9003C59.0201 17.9003 59.0313 17.9011 59.0442 17.9011C59.1157 17.9011 59.1855 17.8985 59.2544 17.8934Z" fill="#17412D"/>
<path d="M144.165 16.6023C142.28 16.6023 142.025 15.3751 141.385 15.3751C141.167 15.3751 140.763 15.5405 140.763 15.9978C140.763 16.1812 140.836 16.3827 140.909 16.4749C141.714 17.4807 142.921 17.9019 144.165 17.9019C146.05 17.9019 147.806 16.3095 147.806 14.3701C147.806 9.66889 142.135 11.1682 142.135 8.14976C142.135 7.01557 143.032 6.32059 144.22 6.32059C145.812 6.32059 146.214 7.27221 146.818 7.27221C147.147 7.27221 147.44 6.99749 147.44 6.63148C147.44 6.46699 147.385 6.28356 147.257 6.15611C146.472 5.35176 145.299 5.00383 144.22 5.00383C142.518 5.00383 140.763 6.13802 140.763 8.14976C140.763 12.3946 146.434 10.7299 146.434 14.3701C146.434 15.5956 145.373 16.6023 144.165 16.6023Z" fill="#17412D"/>
<path d="M82.4825 6.44899C82.8123 6.44899 83.1051 6.19236 83.1051 5.82635C83.1051 5.46035 82.8123 5.18649 82.4825 5.18649H77.2379C76.9098 5.18649 76.6161 5.46035 76.6161 5.82635V11.1321V11.772V14.4977V17.0786C76.6161 17.4438 76.9098 17.7185 77.2379 17.7185H82.4825C82.8123 17.7185 83.1051 17.4438 83.1051 17.0786C83.1051 16.7118 82.8123 16.456 82.4825 16.456H77.8786V14.2617V12.4127V11.7539H81.8065C82.1354 11.7539 82.4093 11.4973 82.4093 11.1321C82.4093 10.7661 82.1354 10.4914 81.8065 10.4914H77.8786V6.44899H82.4825Z" fill="#17412D"/>
<path d="M92.4588 17.0779C92.4588 16.711 92.1668 16.4561 91.8353 16.4561H87.2322V14.261V12.4129V11.754H91.1592C91.4899 11.754 91.7621 11.4974 91.7621 11.1314C91.7621 10.7663 91.4899 10.4915 91.1592 10.4915H87.2322V6.44826H91.8353C92.1668 6.44826 92.4588 6.19249 92.4588 5.82562C92.4588 5.46048 92.1668 5.18662 91.8353 5.18662H86.5906C86.2617 5.18662 85.9706 5.46048 85.9706 5.82562V11.1314V11.7713V14.4978V17.0779C85.9706 17.4431 86.2617 17.7178 86.5906 17.7178H91.8353C92.1668 17.7178 92.4588 17.4431 92.4588 17.0779Z" fill="#17412D"/>
<path d="M156.637 6.44899C156.966 6.44899 157.258 6.19236 157.258 5.82635C157.258 5.46035 156.966 5.18649 156.637 5.18649H151.393C151.063 5.18649 150.77 5.46035 150.77 5.82635V11.1321V11.772V14.4977V17.0786C150.77 17.4438 151.063 17.7185 151.393 17.7185H156.637C156.966 17.7185 157.258 17.4438 157.258 17.0786C157.258 16.7118 156.966 16.456 156.637 16.456H152.033V14.2617V12.4127V11.7539H155.961C156.289 11.7539 156.563 11.4973 156.563 11.1321C156.563 10.7661 156.289 10.4914 155.961 10.4914H152.033V6.44899H156.637Z" fill="#17412D"/>
<path d="M107.506 35.3101C107.871 35.3101 108.109 35.0345 108.109 34.7425C108.109 34.5961 108.074 34.4497 108 34.3214L105.698 29.7528C106.693 29.3231 107.33 28.4111 107.467 27.1985C107.479 27.1202 107.489 27.0418 107.505 26.8179L107.506 26.1065C107.506 26.265 107.629 22.778 104.303 22.778H101.194C100.865 22.778 100.572 23.0519 100.572 23.4188V34.6702C100.572 35.0345 100.846 35.3101 101.194 35.3101C101.541 35.3101 101.834 35.0345 101.834 34.6702V30.0413H104.028C104.158 30.0413 104.286 30.0413 104.413 30.0232L106.92 34.9441C107.011 35.1085 107.23 35.3101 107.506 35.3101ZM104.303 24.0397C105.566 24.0397 106.28 24.8277 106.28 26.1126V26.687C106.28 27.9607 105.557 28.7633 104.294 28.7633H101.834V24.0397H104.303Z" fill="#17412D"/>
<path d="M59.2544 35.4841C59.275 35.4832 59.2966 35.4815 59.3164 35.4798C59.3284 35.4789 59.3396 35.4789 59.3508 35.4772C62.309 35.2602 63.3054 32.5155 63.3054 30.0224V29.2835C63.3054 29.2646 63.3045 29.2473 63.3028 29.2293L63.3054 29.2172C63.3054 28.7048 63.0677 28.3939 62.5742 28.3939H59.3C58.9521 28.3939 58.6593 28.6686 58.6593 29.0346C58.6593 29.4006 58.9521 29.6564 59.3 29.6564H62.0429V29.839C62.0429 31.9911 61.2273 34.039 59.2027 34.1854C59.1338 34.1888 59.0907 34.1923 59.0416 34.1923C56.9739 34.1923 55.7674 31.8516 55.7674 29.0346C55.7674 26.2177 56.9584 23.9123 59.0244 23.9123C60.671 23.9123 61.0008 24.863 61.6054 24.863C61.9533 24.863 62.2444 24.5883 62.2444 24.2232C62.2444 24.0587 62.1893 23.8752 62.0618 23.7478C61.2394 22.9245 60.1035 22.5955 59.0244 22.5955C55.9689 22.5955 54.3774 25.5218 54.3774 29.0346C54.3774 32.519 55.9629 35.4427 58.9702 35.491V35.4927C58.9831 35.4927 58.996 35.491 59.0072 35.491C59.0201 35.491 59.0322 35.4927 59.0442 35.4927C59.1157 35.4927 59.1855 35.4892 59.2544 35.4841Z" fill="#17412D"/>
<path d="M69.9053 23.2181C69.814 22.9615 69.5582 22.7789 69.2835 22.7789C69.0088 22.7789 68.7711 22.9615 68.6798 23.2181L64.7468 34.4506C64.7106 34.5419 64.6908 34.6521 64.6908 34.7615C64.6908 35.0543 64.9113 35.3101 65.3143 35.3101C65.5864 35.3101 65.8448 35.1266 65.9361 34.8709L67.289 31.0661H71.3504L72.7412 34.8709C72.8325 35.1266 73.0891 35.3101 73.363 35.3101C73.7109 35.3101 74.0046 35.0543 74.0046 34.6874C74.0046 34.5961 74.0045 34.4868 73.9675 34.3765L69.9053 23.2181ZM67.7299 29.8036L69.2835 25.303L70.8931 29.8036H67.7299Z" fill="#17412D"/>
<path d="M77.0782 25.6835C77.0782 24.5484 77.9738 23.8534 79.164 23.8534C80.7546 23.8534 81.1585 24.8051 81.7605 24.8051C82.0903 24.8051 82.384 24.5303 82.384 24.1643C82.384 23.999 82.328 23.8173 82.2005 23.6881C81.4143 22.8846 80.243 22.5358 79.164 22.5358C77.4614 22.5358 75.7054 23.67 75.7054 25.6835C75.7054 29.9265 81.3772 28.2627 81.3772 31.903C81.3772 33.1284 80.3162 34.1352 79.1089 34.1352C77.2254 34.1352 76.9679 32.9088 76.3272 32.9088C76.1076 32.9088 75.7054 33.0733 75.7054 33.5315C75.7054 33.714 75.7786 33.9156 75.8527 34.0068C76.6579 35.0136 77.8644 35.4338 79.1089 35.4338C80.9931 35.4338 82.7491 33.8415 82.7491 31.903C82.7491 27.2009 77.0782 28.7011 77.0782 25.6835Z" fill="#17412D"/>
<path d="M114.694 22.5955C111.638 22.5955 110.212 25.5218 110.212 29.0346C110.212 32.5474 111.638 35.4927 114.694 35.4927C117.749 35.4927 119.174 32.5474 119.174 29.0346C119.174 25.5218 117.749 22.5955 114.694 22.5955ZM114.694 34.1751C112.626 34.1751 111.602 31.8516 111.602 29.0346C111.602 26.2177 112.626 23.9131 114.694 23.9131C116.761 23.9131 117.786 26.2177 117.786 29.0346C117.786 31.8516 116.761 34.1751 114.694 34.1751Z" fill="#17412D"/>
<path d="M129.068 22.7783H124.806H120.562C120.214 22.7783 119.904 23.0521 119.904 23.4181C119.904 23.7842 120.214 24.0399 120.562 24.0399H124.166V34.6877C124.166 35.0537 124.459 35.3103 124.806 35.3103C125.154 35.3103 125.429 35.0537 125.429 34.6877V24.0399H129.068C129.416 24.0399 129.709 23.7842 129.709 23.4181C129.709 23.0521 129.416 22.7783 129.068 22.7783Z" fill="#17412D"/>
<path d="M134.743 22.5955C131.688 22.5955 130.262 25.5218 130.262 29.0346C130.262 32.5474 131.688 35.4927 134.743 35.4927C137.799 35.4927 139.225 32.5474 139.225 29.0346C139.225 25.5218 137.799 22.5955 134.743 22.5955ZM134.743 34.1751C132.676 34.1751 131.651 31.8516 131.651 29.0346C131.651 26.2177 132.676 23.9131 134.743 23.9131C136.811 23.9131 137.835 26.2177 137.835 29.0346C137.835 31.8516 136.811 34.1751 134.743 34.1751Z" fill="#17412D"/>
<path d="M146.59 23.9131C148.237 23.9131 148.566 24.8639 149.17 24.8639C149.518 24.8639 149.81 24.5892 149.81 24.2232C149.81 24.0587 149.754 23.8761 149.627 23.7478C148.804 22.9245 147.67 22.5955 146.59 22.5955C143.535 22.5955 141.944 25.5218 141.944 29.0346C141.944 32.5474 143.535 35.4927 146.59 35.4927C147.689 35.4927 148.823 35.1086 149.627 34.3042C149.754 34.1759 149.81 34.0114 149.81 33.8461C149.81 33.4801 149.518 33.1881 149.17 33.1881C148.566 33.1881 148.164 34.1759 146.553 34.1759C144.487 34.1759 143.333 31.8524 143.333 29.0346C143.333 26.2177 144.523 23.9131 146.59 23.9131Z" fill="#17412D"/>
<path d="M156.156 22.5358C153.101 22.5358 151.675 25.463 151.675 28.9758C151.675 32.4886 153.101 35.4338 156.156 35.4338C159.212 35.4338 160.639 32.4886 160.639 28.9758C160.639 25.463 159.212 22.5358 156.156 22.5358ZM156.156 34.1162C154.089 34.1162 153.064 31.7927 153.064 28.9758C153.064 26.1588 154.089 23.8534 156.156 23.8534C158.225 23.8534 159.249 26.1588 159.249 28.9758C159.249 31.7927 158.225 34.1162 156.156 34.1162Z" fill="#17412D"/>
<path d="M169.47 34.0144H164.866V32.056C164.867 32.0534 164.867 23.3399 164.867 23.3399C164.867 22.9739 164.575 22.7181 164.226 22.7181C163.878 22.7181 163.604 22.9739 163.604 23.3399V23.389L163.603 23.3847V28.6905V29.3312V32.0569V34.6361C163.603 35.0021 163.896 35.2769 164.226 35.2769H169.47C169.8 35.2769 170.093 35.0021 170.093 34.6361C170.093 34.2701 169.8 34.0144 169.47 34.0144Z" fill="#17412D"/>
<path d="M94.4142 22.7783H91.3044C90.9737 22.7783 90.6818 23.0521 90.6818 23.4181V34.6704C90.6818 35.0347 90.9573 35.3103 91.3044 35.3103C91.6523 35.3103 91.9434 35.0347 91.9434 34.6704V30.0416H94.1394C94.2686 30.0416 94.3961 30.0416 94.5244 30.0226C96.413 29.9718 97.6152 28.7067 97.6074 26.6958V26.0009C97.6074 25.9182 97.6023 25.8381 97.5937 25.7614C97.4585 23.9598 96.2571 22.7783 94.4142 22.7783ZM94.4142 24.0399C95.6758 24.0399 96.4087 24.8159 96.4087 26.0956L96.4061 26.7027C96.4061 27.9833 95.6672 28.7627 94.4055 28.7627H91.9434V24.0399H94.4142Z" fill="#17412D"/>
<defs>
<linearGradient id="paint0_linear_50_118" x1="12.3771" y1="26.036" x2="-0.2226" y2="11.0203" gradientUnits="userSpaceOnUse">
<stop stop-color="white"/>
<stop offset="1" stop-color="#17412D"/>
</linearGradient>
<linearGradient id="paint1_linear_50_118" x1="10.6411" y1="18.7547" x2="12.3496" y2="-0.772777" gradientUnits="userSpaceOnUse">
<stop stop-color="white"/>
<stop offset="1" stop-color="#17412D"/>
</linearGradient>
<linearGradient id="paint2_linear_50_118" x1="14.5612" y1="12.3814" x2="29.5777" y2="-0.218971" gradientUnits="userSpaceOnUse">
<stop stop-color="white"/>
<stop offset="1" stop-color="#17412D"/>
</linearGradient>
<linearGradient id="paint3_linear_50_118" x1="21.841" y1="10.6382" x2="41.3691" y2="12.3467" gradientUnits="userSpaceOnUse">
<stop stop-color="white"/>
<stop offset="1" stop-color="#17412D"/>
</linearGradient>
<linearGradient id="paint4_linear_50_118" x1="28.2226" y1="14.5542" x2="40.8218" y2="29.5693" gradientUnits="userSpaceOnUse">
<stop stop-color="white"/>
<stop offset="1" stop-color="#17412D"/>
</linearGradient>
<linearGradient id="paint5_linear_50_118" x1="29.9526" y1="21.8345" x2="28.2442" y2="41.3611" gradientUnits="userSpaceOnUse">
<stop stop-color="white"/>
<stop offset="1" stop-color="#17412D"/>
</linearGradient>
<linearGradient id="paint6_linear_50_118" x1="26.0443" y1="28.2079" x2="11.0271" y2="40.8089" gradientUnits="userSpaceOnUse">
<stop stop-color="white"/>
<stop offset="1" stop-color="#17412D"/>
</linearGradient>
<linearGradient id="paint7_linear_50_118" x1="18.7572" y1="29.9512" x2="-0.771073" y2="28.2427" gradientUnits="userSpaceOnUse">
<stop stop-color="white"/>
<stop offset="1" stop-color="#17412D"/>
</linearGradient>
</defs>
</svg>
