<svg width="56" height="46" viewBox="0 0 56 46" fill="none" xmlns="http://www.w3.org/2000/svg">
<path d="M54.7806 17.8393C54.2511 16.4477 53.1637 15.2054 51.8403 14.3096C48.0198 11.881 42.1973 11.708 38.2607 13.9036C36.1138 14.9994 34.7026 17.1679 34.2635 19.4011C33.4669 23.0701 33.6727 27.4356 36.4962 30.1857C39.7886 33.0751 44.5804 33.7134 48.8414 32.5265C49.0438 32.4875 49.6854 32.3258 50.1279 32.0908L50.2525 32.0373C51.5759 31.4868 52.838 30.5903 53.7803 29.3764C55.9549 26.1932 56.104 21.4238 54.7806 17.8393ZM47.8431 26.0783C47.6927 26.7741 47.2252 27.495 46.488 27.7564C45.3143 28.2733 43.7265 28.13 42.6391 27.5254C41.7272 26.887 41.6098 25.8183 41.4924 24.8069C41.4034 22.8134 41.2597 20.7023 41.8175 18.8796C42.2547 17.7508 43.4607 17.4604 44.5514 17.3752C45.6967 17.3752 46.8118 17.5501 47.5193 18.475C47.9598 19.1384 47.9327 20.0065 48.0198 20.7881C47.9888 22.4351 48.1365 24.3996 47.8431 26.0783ZM13.0092 27.8739C12.0386 27.8145 10.9512 27.8996 10.0116 27.7841L10.0406 17.6327L10.1 17.5482L13.0092 17.5198C13.0395 15.8721 13.0686 14.1049 12.9789 12.6031L1.89906 12.5721L0.0745123 12.6038C0.0454989 14.1353 0.0454989 15.9262 0.0745123 17.4894C1.07481 17.5204 2.01379 17.4894 2.98442 17.5798V27.4111L2.95607 27.8151L0.0454989 27.8746C-0.0151663 29.4644 -0.0151663 31.0561 0.0454989 32.646H13.0085L13.0092 27.8739ZM45.6361 34.8125C44.403 36.5784 42.8449 38.2841 41.1436 39.611C41.0816 39.7014 40.9056 39.6671 40.8495 39.5839C40.1123 39.1225 39.3191 38.7449 38.6122 38.2841C39.5538 37.1573 40.4658 36.0298 41.1713 34.7815H40.2567C39.5261 35.8555 38.7599 36.9824 37.7906 37.9336C36.4962 37.4141 35.3212 36.952 33.9984 36.6021L33.8514 36.4919C34.0571 35.9077 34.4382 35.3591 34.5549 34.7802H33.7617L32.9684 36.3427C31.2362 35.9671 29.3246 35.7624 27.5607 35.6482C27.4717 35.3888 27.5884 35.0125 27.4717 34.7802H26.7075C26.6468 35.1281 26.7958 35.3901 26.6191 35.6786C24.7966 35.7624 23.0333 35.9671 21.3301 36.3176L20.5336 34.7802C20.2428 34.7802 19.9157 34.7247 19.7126 34.8112L20.4459 36.5176L20.3582 36.6021C19.0407 36.9837 17.7455 37.4381 16.4783 37.9633L16.3616 37.9039C15.5367 37.0074 14.7428 36.0285 14.0952 35.0449C13.9495 34.5504 13.3613 34.8396 13.0376 34.7815C13.7405 36.0555 14.6841 37.1817 15.623 38.3402C14.8298 38.8043 14.0392 39.3219 13.2123 39.7014C11.4143 38.3305 9.84685 36.6805 8.5695 34.8138C8.21606 34.7571 7.9833 34.7828 7.62788 34.8138C9.74454 38.1105 13.0376 41.0012 16.477 42.7077C16.477 42.7077 16.477 42.6819 16.5086 42.6819C16.5337 42.6819 16.5924 42.7354 16.5337 42.7657C18.8574 43.8939 21.3281 44.7032 23.942 45.0518C32.9671 46.236 41.5808 42.3921 46.5751 34.8138C46.2629 34.7817 45.9483 34.7812 45.6361 34.8125ZM33.3812 37.4147L33.4676 37.3567C34.735 37.6458 35.9377 38.0511 37.0554 38.599C36.1138 39.6664 34.9084 40.5939 33.7927 41.3742C33.1175 41.7775 32.4389 42.2159 31.7327 42.5604L30.4713 42.0112L30.5577 41.8112C31.618 40.3952 32.5589 38.9476 33.3812 37.4147ZM27.5884 36.5467C29.2653 36.5784 30.9415 36.7513 32.497 37.1256L32.528 37.2134C31.7064 38.7733 30.6751 40.2804 29.56 41.6944C29.0576 41.7538 28.5894 41.5537 28.0902 41.5227L27.5878 41.4633C27.5304 39.7569 27.4994 38.2531 27.5884 36.5467ZM21.9176 37.0669C23.4461 36.7777 25.0326 36.5467 26.6778 36.5467L26.7081 41.4389C26.0896 41.5788 25.4137 41.5788 24.8256 41.7274C23.6202 40.3068 22.6219 38.7733 21.7706 37.1817L21.9176 37.0669ZM17.1825 38.63C18.3318 38.0788 19.5352 37.6715 20.7683 37.356L20.8877 37.3864C21.7376 38.9773 22.7973 40.4797 23.8549 41.9835C23.4468 42.2165 22.9443 42.3558 22.5342 42.5908C20.5463 41.6077 18.7375 40.2974 17.1832 38.7145V38.63H17.1825ZM20.976 43.5744C18.5066 42.9361 16.2119 41.8376 14.0959 40.3365V40.2467C14.8014 39.8169 15.5096 39.3529 16.2712 39.0314C17.9481 40.6844 19.681 41.928 21.5622 43.111C21.4158 43.2846 21.1811 43.4589 20.976 43.5744ZM31.8804 43.948C28.7654 44.6174 25.2951 44.6432 22.1807 43.8926C22.1214 43.7487 22.3278 43.7176 22.4155 43.6332C25.1493 41.8673 29.4097 41.8673 32.0875 43.7738C32.1745 43.948 31.9398 43.8926 31.8804 43.948ZM34.7033 43.1414L33.3219 43.5737C33.0858 43.4582 32.8814 43.2846 32.6737 43.1103L32.733 43.0219C34.6149 41.9274 36.3188 40.5933 37.9363 39.003C38.7302 39.3205 39.4951 39.7569 40.2027 40.246C38.5548 41.5537 36.6432 42.4172 34.7033 43.1414ZM8.51213 10.3752C9.23922 9.36788 10.0346 8.41174 10.8925 7.51354C11.6541 6.7907 12.3623 6.09691 13.1866 5.57409C13.9515 6.06522 14.8028 6.4745 15.5373 6.93527C14.6267 8.05749 13.6857 9.19027 13.0099 10.4016C13.2143 10.492 13.598 10.4637 13.8928 10.4016C14.6267 9.33352 15.418 8.26411 16.3622 7.3089C17.623 7.77298 18.8594 8.26279 20.1544 8.61134L20.2685 8.7262L19.5366 10.4016C19.861 10.4637 20.0667 10.4333 20.3878 10.4016C20.6516 9.91311 20.856 9.36521 21.1501 8.87077C22.8573 9.24836 24.6508 9.4497 26.4734 9.50581C26.7068 9.71111 26.5314 10.1428 26.6198 10.4016H27.413C27.4994 10.1178 27.3834 9.79561 27.4994 9.53816C29.2059 9.44838 30.9982 9.27477 32.6499 8.86945L32.793 8.89982L33.5869 10.4003C33.852 10.4003 34.2041 10.4623 34.4099 10.3409L33.6733 8.66811L33.7347 8.61002C35.0844 8.26279 36.3505 7.74261 37.6435 7.22309C38.5575 8.17697 39.4074 9.30447 40.1743 10.3996C40.4961 10.3996 40.8199 10.4313 41.0553 10.3402C40.6922 9.69461 40.2687 9.08499 39.7905 8.51958C39.4023 7.96577 38.9692 7.44493 38.4955 6.96234V6.81249L40.5535 5.62888L40.8502 5.51335C42.6399 6.86951 44.2061 8.49825 45.4917 10.3402C45.8444 10.3402 46.1392 10.4617 46.4339 10.3158C42.4908 4.4215 35.9957 0.629061 28.9738 0.0831349L28.9428 0.139246L28.8828 0.0831349C28.0902 -0.00202171 27.1163 -0.0356883 26.265 0.0494683C25.9426 0.0243834 25.5614 0.0494683 25.1783 0.0831349C18.1248 0.629061 11.6291 4.24591 7.57052 10.4029C7.86461 10.3752 8.21738 10.4927 8.51213 10.3752ZM20.7129 7.83437L20.5955 7.85945C19.3889 7.54457 18.2118 7.165 17.0948 6.67518L17.1515 6.50157C18.7684 4.96941 20.4729 3.69602 22.3542 2.71507C22.7973 2.88868 23.2377 3.03193 23.6782 3.23723L23.5918 3.46299C22.4728 4.85455 21.5932 6.35502 20.7129 7.83437ZM26.5604 8.61266C25.7395 8.72818 25.0043 8.58691 24.178 8.52288C23.3881 8.4067 22.3865 8.32286 21.5932 8.05881C22.4458 6.47582 23.4468 4.94036 24.6508 3.52703L26.5327 3.78382C26.6198 5.28495 26.5604 7.02109 26.5604 8.61266ZM27.4711 8.64369C27.413 7.10625 27.4434 5.40245 27.4711 3.81154C28.0612 3.72705 28.7048 3.63727 29.2943 3.55211C30.4403 4.99581 31.56 6.47582 32.3249 8.05881C30.7355 8.44378 29.1063 8.64009 27.4711 8.64369ZM36.851 6.61643C35.7023 7.10559 34.5253 7.569 33.2632 7.83437C32.3526 6.30155 31.3536 4.76939 30.2333 3.28872C30.6454 3.0623 31.1478 2.88868 31.5877 2.6583C33.5019 3.61152 35.3515 4.96941 36.9077 6.52599L36.851 6.61643ZM33.0858 1.67207C35.5552 2.30975 37.8776 3.40688 39.9943 4.91066L39.9356 5.02618L37.9093 6.15236H37.7596C36.2041 4.59644 34.3822 3.23723 32.528 2.16452C32.5866 1.96186 32.8821 1.81597 33.0858 1.67207ZM31.9114 1.38161V1.443C29.3523 3.28872 25.2087 3.46299 22.5058 1.75656C22.3542 1.64104 22.064 1.58493 22.0324 1.38227C25.15 0.662728 28.8222 0.604637 31.9114 1.38161ZM13.9792 4.96941C15.8327 3.61152 17.8894 2.59955 20.0654 1.90509C20.1544 1.81465 20.2111 1.7295 20.3272 1.7295V1.78891C20.5619 1.84568 20.7393 1.58361 20.9444 1.75524C21.1217 1.90509 21.3295 2.01929 21.4745 2.1632C19.6533 3.28872 17.8591 4.62152 16.2125 6.23752C15.4186 5.95366 14.6867 5.51732 13.9785 5.02618L13.9792 4.96941ZM26.5908 28.0997C23.8279 28.8529 20.8277 28.2786 18.8297 26.1932C18.5956 25.9041 18.4472 25.5595 18.2112 25.2717L14.2443 25.2994C14.1816 27.6409 14.1539 30.3309 14.2443 32.6453L18.6516 32.6169L18.7103 31.228C19.2121 31.4591 19.7126 31.7475 20.2111 32.007C23.2681 33.281 27.2033 33.5701 30.2319 32.007C32.4383 30.7956 33.6146 28.4542 33.2902 25.9331C32.9684 23.4781 30.6157 21.2502 28.2366 20.6448L21.1211 18.5898L20.5949 18.3284C20.3595 18.1278 20.2118 17.869 20.2691 17.5482C20.8277 16.5963 22.1227 16.8854 23.0927 16.9111C25.15 17.2009 27.266 17.8947 28.472 19.7754C29.7638 19.7754 31.2626 19.8005 32.6724 19.7451C32.7324 17.3745 32.6493 15.2938 32.6143 12.8929C31.2916 12.8626 29.6741 12.8626 28.3533 12.9233C28.294 13.2672 28.41 13.757 28.263 14.1056L26.9119 13.3821C23.6769 12.0235 19.1495 11.8816 16.2112 13.9927C14.2996 15.3783 13.7134 17.8677 14.2133 20.0646C14.5937 22.1433 16.5924 23.6775 18.5039 24.3983C21.1198 25.3225 23.8523 25.9919 26.5024 26.887C26.7648 27.0045 27.117 27.2666 27.0603 27.5841C27.0616 27.8409 26.7952 27.9894 26.5908 28.0997Z" fill="#0398CC"/>
</svg>
