<svg width="1902" height="194" viewBox="0 0 1902 194" fill="none" xmlns="http://www.w3.org/2000/svg">
<path d="M288.139 193C288.139 193 29.7186 193 17.2323 193C16.34 193 15.5481 192.448 15.2358 191.617C10.4063 178.69 -15.0626 100.984 16.3288 41.3851C19.1618 36.0091 89.9474 39.3384 126.726 117.229C120.815 136.641 117.642 153.321 117.614 153.584L123.508 156.193L124.172 154.13C127.273 144.549 130.362 135.281 134.121 126.548C188.516 0.334685 286.003 -5.45955 289.422 2.2252C314.372 58.3607 297.871 177.709 288.139 193Z" fill="#70D460"/>
<path d="M535.228 192.559C511.677 192.559 488.621 183.882 470.772 166.032C453.666 148.431 444.245 126.119 444.245 101.576C444.245 76.7853 453.666 54.2256 470.772 37.1199C506.47 1.42104 563.985 1.42104 599.684 37.1199L570.183 66.6211C550.846 47.2842 519.61 47.5321 500.521 66.6211C491.348 76.2895 486.142 88.437 486.142 101.576C486.142 114.715 491.348 126.615 500.521 136.283C519.61 155.372 550.846 155.62 570.183 136.283L599.684 166.032C581.835 183.882 559.027 192.559 535.228 192.559ZM713.838 192.807L706.649 170.743H649.382L641.945 192.807H597.569L659.546 10.8416H699.212L757.966 192.807H713.838ZM663.761 128.846H693.262L678.883 84.7184L663.761 128.846ZM853.514 192.807L824.26 145.704C820.046 146.448 815.832 146.696 811.121 146.944V192.807H769.225V11.3374H811.121C852.77 12.0811 886.238 42.326 886.238 79.0165C886.238 98.6013 877.561 115.707 862.686 127.855L902.848 192.807H853.514ZM811.121 53.4819V104.799C829.219 104.055 844.341 92.8994 844.341 79.0165C844.341 65.3815 829.219 54.2256 811.121 53.4819ZM998.401 83.2309C1014.02 94.8827 1023.44 111.74 1023.44 130.829C1023.44 165.289 992.203 192.807 953.777 192.807H900.477V10.0978L948.819 10.3458C979.56 10.3458 1004.6 32.9055 1004.6 60.4233C1004.6 68.6043 1002.62 76.2895 998.401 83.2309ZM948.819 52.2423H942.373V68.8522H949.067C957.248 68.6043 962.702 64.142 962.702 60.4233C962.702 57.2005 957.496 52.2423 948.819 52.2423ZM942.373 150.662H953.777C968.652 150.662 981.543 141.49 981.543 130.829C981.543 119.921 968.652 110.749 953.777 110.749H949.315H948.819H942.373V150.662ZM1110.04 10.5937C1160.36 10.5937 1201.27 51.2507 1201.27 101.576C1201.27 151.902 1160.36 192.559 1110.04 192.559C1059.71 192.559 1019.06 151.902 1019.06 101.576C1019.06 51.2507 1059.71 10.5937 1110.04 10.5937ZM1110.04 150.662C1137.06 150.662 1159.13 128.598 1159.13 101.576C1159.13 74.5541 1137.06 52.4902 1110.04 52.4902C1083.02 52.4902 1060.95 74.5541 1060.95 101.576C1060.95 128.598 1083.02 150.662 1110.04 150.662ZM1315.89 10.8416H1357.79V192.807H1312.42L1252.92 86.7017V192.807H1211.03V11.3374H1256.64L1315.89 117.194V10.8416ZM1518.29 7.86666H1560.19V124.136C1560.19 162.562 1528.7 192.807 1491.27 192.807H1490.53C1471.69 192.559 1454.83 185.121 1441.69 171.982C1428.8 158.843 1421.86 141.737 1422.1 122.896L1464 123.392C1464 130.829 1466.48 137.275 1471.69 142.729C1477.14 148.183 1483.59 150.91 1491.02 150.91C1505.65 150.91 1518.29 139.258 1518.29 123.888V7.86666ZM1689.01 192.807L1681.82 170.743H1624.55L1617.12 192.807H1572.74L1634.72 10.8416H1674.38L1733.14 192.807H1689.01ZM1638.93 128.846H1668.43L1654.06 84.7184L1638.93 128.846ZM1828.69 192.807L1799.43 145.704C1795.22 146.448 1791 146.696 1786.29 146.944V192.807H1744.4V11.3374H1786.29C1827.94 12.0811 1861.41 42.326 1861.41 79.0165C1861.41 98.6013 1852.73 115.707 1837.86 127.855L1878.02 192.807H1828.69ZM1786.29 53.4819V104.799C1804.39 104.055 1819.51 92.8994 1819.51 79.0165C1819.51 65.3815 1804.39 54.2256 1786.29 53.4819Z" fill="#D4EDD8"/>
</svg>
