<?xml version="1.0" encoding="UTF-8" standalone="no" ?>
<!DOCTYPE svg PUBLIC "-//W3C//DTD SVG 1.1//EN" "http://www.w3.org/Graphics/SVG/1.1/DTD/svg11.dtd">
<svg xmlns="http://www.w3.org/2000/svg" xmlns:xlink="http://www.w3.org/1999/xlink" version="1.1" width="3600" height="1080" viewBox="0 0 3600 1080" xml:space="preserve">
<desc>Created with Fabric.js 5.2.4</desc>
<defs>
</defs>
<g transform="matrix(1 0 0 1 1800 540)" id="8b8589d7-4724-45ad-8679-ada457be197b"  >
<rect style="stroke: none; stroke-width: 1; stroke-dasharray: none; stroke-linecap: butt; stroke-dashoffset: 0; stroke-linejoin: miter; stroke-miterlimit: 4; fill: rgb(255,255,255); fill-rule: nonzero; opacity: 1; visibility: hidden;" vector-effect="non-scaling-stroke"  x="-1800" y="-540" rx="0" ry="0" width="3600" height="1080" />
</g>
<g transform="matrix(Infinity NaN NaN Infinity 0 0)" id="1a2f96b6-d8fb-4242-b918-b3da1c55efc4"  >
</g>
<g transform="matrix(1.89 0 0 1.89 1800 540)"  >
<g style="" vector-effect="non-scaling-stroke"   >
		<g transform="matrix(1 0 0 1 -787.73 0)"  >
<path style="stroke: none; stroke-width: 1; stroke-dasharray: none; stroke-linecap: butt; stroke-dashoffset: 0; stroke-linejoin: miter; stroke-miterlimit: 4; fill: rgb(112,212,96); fill-rule: nonzero; opacity: 1;" vector-effect="non-scaling-stroke"  transform=" translate(-151.74, -96.5)" d="M 288.139 193 C 288.139 193 29.7186 193 17.2323 193 C 16.34 193 15.5481 192.448 15.2358 191.617 C 10.4063 178.69 -15.0626 100.984 16.3288 41.3851 C 19.1618 36.0091 89.9474 39.3384 126.726 117.229 C 120.815 136.641 117.642 153.321 117.614 153.584 L 123.508 156.193 L 124.172 154.13 C 127.273 144.549 130.362 135.281 134.121 126.548 C 188.516 0.334685 286.003 -5.45955 289.422 2.2252 C 314.372 58.3607 297.871 177.709 288.139 193 Z" stroke-linecap="round" />
</g>
		<g transform="matrix(1 0 0 1 221.67 3.84)"  >
<path style="stroke: none; stroke-width: 1; stroke-dasharray: none; stroke-linecap: butt; stroke-dashoffset: 0; stroke-linejoin: miter; stroke-miterlimit: 4; fill: rgb(212,237,216); fill-rule: nonzero; opacity: 1;" vector-effect="non-scaling-stroke"  transform=" translate(-1161.13, -100.34)" d="M 535.228 192.559 C 511.677 192.559 488.621 183.882 470.772 166.032 C 453.666 148.431 444.245 126.119 444.245 101.576 C 444.245 76.7853 453.666 54.2256 470.772 37.1199 C 506.47 1.42104 563.985 1.42104 599.684 37.1199 L 570.183 66.6211 C 550.846 47.2842 519.61 47.5321 500.521 66.6211 C 491.348 76.2895 486.142 88.437 486.142 101.576 C 486.142 114.715 491.348 126.615 500.521 136.283 C 519.61 155.372 550.846 155.62 570.183 136.283 L 599.684 166.032 C 581.835 183.882 559.027 192.559 535.228 192.559 Z M 713.838 192.807 L 706.649 170.743 L 649.382 170.743 L 641.945 192.807 L 597.569 192.807 L 659.546 10.8416 L 699.212 10.8416 L 757.966 192.807 L 713.838 192.807 Z M 663.761 128.846 L 693.262 128.846 L 678.883 84.7184 L 663.761 128.846 Z M 853.514 192.807 L 824.26 145.704 C 820.046 146.448 815.832 146.696 811.121 146.944 L 811.121 192.807 L 769.225 192.807 L 769.225 11.3374 L 811.121 11.3374 C 852.77 12.0811 886.238 42.326 886.238 79.0165 C 886.238 98.6013 877.561 115.707 862.686 127.855 L 902.848 192.807 L 853.514 192.807 Z M 811.121 53.4819 L 811.121 104.799 C 829.219 104.055 844.341 92.8994 844.341 79.0165 C 844.341 65.3815 829.219 54.2256 811.121 53.4819 Z M 998.401 83.2309 C 1014.02 94.8827 1023.44 111.74 1023.44 130.829 C 1023.44 165.289 992.203 192.807 953.777 192.807 L 900.477 192.807 L 900.477 10.0978 L 948.819 10.3458 C 979.56 10.3458 1004.6 32.9055 1004.6 60.4233 C 1004.6 68.6043 1002.62 76.2895 998.401 83.2309 Z M 948.819 52.2423 L 942.373 52.2423 L 942.373 68.8522 L 949.067 68.8522 C 957.248 68.6043 962.702 64.142 962.702 60.4233 C 962.702 57.2005 957.496 52.2423 948.819 52.2423 Z M 942.373 150.662 L 953.777 150.662 C 968.652 150.662 981.543 141.49 981.543 130.829 C 981.543 119.921 968.652 110.749 953.777 110.749 L 949.315 110.749 L 948.819 110.749 L 942.373 110.749 L 942.373 150.662 Z M 1110.04 10.5937 C 1160.36 10.5937 1201.27 51.2507 1201.27 101.576 C 1201.27 151.902 1160.36 192.559 1110.04 192.559 C 1059.71 192.559 1019.06 151.902 1019.06 101.576 C 1019.06 51.2507 1059.71 10.5937 1110.04 10.5937 Z M 1110.04 150.662 C 1137.06 150.662 1159.13 128.598 1159.13 101.576 C 1159.13 74.5541 1137.06 52.4902 1110.04 52.4902 C 1083.02 52.4902 1060.95 74.5541 1060.95 101.576 C 1060.95 128.598 1083.02 150.662 1110.04 150.662 Z M 1315.89 10.8416 L 1357.79 10.8416 L 1357.79 192.807 L 1312.42 192.807 L 1252.92 86.7017 L 1252.92 192.807 L 1211.03 192.807 L 1211.03 11.3374 L 1256.64 11.3374 L 1315.89 117.194 L 1315.89 10.8416 Z M 1518.29 7.86666 L 1560.19 7.86666 L 1560.19 124.136 C 1560.19 162.562 1528.7 192.807 1491.27 192.807 L 1490.53 192.807 C 1471.69 192.559 1454.83 185.121 1441.69 171.982 C 1428.8 158.843 1421.86 141.737 1422.1 122.896 L 1464 123.392 C 1464 130.829 1466.48 137.275 1471.69 142.729 C 1477.14 148.183 1483.59 150.91 1491.02 150.91 C 1505.65 150.91 1518.29 139.258 1518.29 123.888 L 1518.29 7.86666 Z M 1689.01 192.807 L 1681.82 170.743 L 1624.55 170.743 L 1617.12 192.807 L 1572.74 192.807 L 1634.72 10.8416 L 1674.38 10.8416 L 1733.14 192.807 L 1689.01 192.807 Z M 1638.93 128.846 L 1668.43 128.846 L 1654.06 84.7184 L 1638.93 128.846 Z M 1828.69 192.807 L 1799.43 145.704 C 1795.22 146.448 1791 146.696 1786.29 146.944 L 1786.29 192.807 L 1744.4 192.807 L 1744.4 11.3374 L 1786.29 11.3374 C 1827.94 12.0811 1861.41 42.326 1861.41 79.0165 C 1861.41 98.6013 1852.73 115.707 1837.86 127.855 L 1878.02 192.807 L 1828.69 192.807 Z M 1786.29 53.4819 L 1786.29 104.799 C 1804.39 104.055 1819.51 92.8994 1819.51 79.0165 C 1819.51 65.3815 1804.39 54.2256 1786.29 53.4819 Z" stroke-linecap="round" />
</g>
</g>
</g>
</svg>