<svg width="1902" height="194" viewBox="0 0 1902 194" fill="none" xmlns="http://www.w3.org/2000/svg">
<path d="M288.132 193C288.132 193 29.7118 193 17.2254 193C16.3332 193 15.5413 192.448 15.229 191.617C10.3995 178.69 -15.0695 100.984 16.322 41.3851C19.155 36.0091 89.9406 39.3384 126.719 117.229C120.808 136.641 117.635 153.321 117.607 153.584L123.501 156.193L124.165 154.13C127.266 144.549 130.355 135.281 134.114 126.548C188.51 0.334685 285.997 -5.45955 289.415 2.2252C314.365 58.3607 297.864 177.709 288.132 193Z" fill="#7E9BF5"/>
<path d="M535.221 192.559C511.67 192.559 488.614 183.882 470.765 166.032C453.659 148.431 444.238 126.119 444.238 101.576C444.238 76.7853 453.659 54.2256 470.765 37.1199C506.464 1.42104 563.978 1.42104 599.677 37.1199L570.176 66.6211C550.839 47.2842 519.603 47.5321 500.514 66.6211C491.341 76.2895 486.135 88.437 486.135 101.576C486.135 114.715 491.341 126.615 500.514 136.283C519.603 155.372 550.839 155.62 570.176 136.283L599.677 166.032C581.828 183.882 559.02 192.559 535.221 192.559ZM713.832 192.807L706.642 170.743H649.375L641.938 192.807H597.562L659.54 10.8416H699.205L757.959 192.807H713.832ZM663.754 128.846H693.255L678.876 84.7184L663.754 128.846ZM853.507 192.807L824.254 145.704C820.039 146.448 815.825 146.696 811.114 146.944V192.807H769.218V11.3374H811.114C852.763 12.0811 886.231 42.326 886.231 79.0165C886.231 98.6013 877.554 115.707 862.679 127.855L902.841 192.807H853.507ZM811.114 53.4819V104.799C829.212 104.055 844.334 92.8994 844.334 79.0165C844.334 65.3815 829.212 54.2256 811.114 53.4819ZM998.394 83.2309C1014.01 94.8827 1023.43 111.74 1023.43 130.829C1023.43 165.289 992.196 192.807 953.77 192.807H900.47V10.0978L948.812 10.3458C979.553 10.3458 1004.59 32.9055 1004.59 60.4233C1004.59 68.6043 1002.61 76.2895 998.394 83.2309ZM948.812 52.2423H942.367V68.8522H949.06C957.241 68.6043 962.695 64.142 962.695 60.4233C962.695 57.2005 957.489 52.2423 948.812 52.2423ZM942.367 150.662H953.77C968.645 150.662 981.536 141.49 981.536 130.829C981.536 119.921 968.645 110.749 953.77 110.749H949.308H948.812H942.367V150.662ZM1110.03 10.5937C1160.36 10.5937 1201.26 51.2507 1201.26 101.576C1201.26 151.902 1160.36 192.559 1110.03 192.559C1059.71 192.559 1019.05 151.902 1019.05 101.576C1019.05 51.2507 1059.71 10.5937 1110.03 10.5937ZM1110.03 150.662C1137.05 150.662 1159.12 128.598 1159.12 101.576C1159.12 74.5541 1137.05 52.4902 1110.03 52.4902C1083.01 52.4902 1060.95 74.5541 1060.95 101.576C1060.95 128.598 1083.01 150.662 1110.03 150.662ZM1315.88 10.8416H1357.78V192.807H1312.41L1252.92 86.7017V192.807H1211.02V11.3374H1256.63L1315.88 117.194V10.8416ZM1518.29 7.86666H1560.18V124.136C1560.18 162.562 1528.7 192.807 1491.26 192.807H1490.52C1471.68 192.559 1454.82 185.121 1441.68 171.982C1428.79 158.843 1421.85 141.737 1422.1 122.896L1463.99 123.392C1463.99 130.829 1466.47 137.275 1471.68 142.729C1477.13 148.183 1483.58 150.91 1491.02 150.91C1505.64 150.91 1518.29 139.258 1518.29 123.888V7.86666ZM1689 192.807L1681.81 170.743H1624.55L1617.11 192.807H1572.73L1634.71 10.8416H1674.38L1733.13 192.807H1689ZM1638.93 128.846H1668.43L1654.05 84.7184L1638.93 128.846ZM1828.68 192.807L1799.43 145.704C1795.21 146.448 1791 146.696 1786.29 146.944V192.807H1744.39V11.3374H1786.29C1827.94 12.0811 1861.4 42.326 1861.4 79.0165C1861.4 98.6013 1852.73 115.707 1837.85 127.855L1878.01 192.807H1828.68ZM1786.29 53.4819V104.799C1804.38 104.055 1819.51 92.8994 1819.51 79.0165C1819.51 65.3815 1804.38 54.2256 1786.29 53.4819Z" fill="#7E9BF5"/>
</svg>
