<svg width="1901" height="194" viewBox="0 0 1901 194" fill="none" xmlns="http://www.w3.org/2000/svg">
<path d="M287.228 193C287.228 193 28.8075 193 16.3211 193C15.4289 193 14.637 192.448 14.3247 191.617C9.4952 178.69 -15.9738 100.984 15.4177 41.3851C18.2507 36.0091 89.0363 39.3384 125.815 117.229C119.904 136.641 116.73 153.321 116.703 153.584L122.597 156.193L123.261 154.13C126.361 144.549 129.451 135.281 133.21 126.548C187.605 0.334685 285.092 -5.45955 288.511 2.2252C313.461 58.3607 296.96 177.709 287.228 193Z" fill="#081747"/>
<path d="M534.317 192.559C510.765 192.559 487.71 183.882 469.86 166.032C452.755 148.431 443.334 126.119 443.334 101.576C443.334 76.7853 452.755 54.2256 469.86 37.1199C505.559 1.42104 563.074 1.42104 598.773 37.1199L569.272 66.6211C549.935 47.2842 518.698 47.5321 499.609 66.6211C490.437 76.2895 485.231 88.437 485.231 101.576C485.231 114.715 490.437 126.615 499.609 136.283C518.698 155.372 549.935 155.62 569.272 136.283L598.773 166.032C580.924 183.882 558.116 192.559 534.317 192.559ZM712.927 192.807L705.738 170.743H648.471L641.034 192.807H596.658L658.635 10.8416H698.301L757.055 192.807H712.927ZM662.85 128.846H692.351L677.972 84.7184L662.85 128.846ZM852.603 192.807L823.349 145.704C819.135 146.448 814.92 146.696 810.21 146.944V192.807H768.314V11.3374H810.21C851.859 12.0811 885.327 42.326 885.327 79.0165C885.327 98.6013 876.65 115.707 861.775 127.855L901.936 192.807H852.603ZM810.21 53.4819V104.799C828.307 104.055 843.43 92.8994 843.43 79.0165C843.43 65.3815 828.307 54.2256 810.21 53.4819ZM997.49 83.2309C1013.11 94.8827 1022.53 111.74 1022.53 130.829C1022.53 165.289 991.292 192.807 952.866 192.807H899.566V10.0978L947.908 10.3458C978.649 10.3458 1003.69 32.9055 1003.69 60.4233C1003.69 68.6043 1001.7 76.2895 997.49 83.2309ZM947.908 52.2423H941.462V68.8522H948.156C956.337 68.6043 961.791 64.142 961.791 60.4233C961.791 57.2005 956.585 52.2423 947.908 52.2423ZM941.462 150.662H952.866C967.741 150.662 980.632 141.49 980.632 130.829C980.632 119.921 967.741 110.749 952.866 110.749H948.404H947.908H941.462V150.662ZM1109.13 10.5937C1159.45 10.5937 1200.36 51.2507 1200.36 101.576C1200.36 151.902 1159.45 192.559 1109.13 192.559C1058.8 192.559 1018.15 151.902 1018.15 101.576C1018.15 51.2507 1058.8 10.5937 1109.13 10.5937ZM1109.13 150.662C1136.15 150.662 1158.21 128.598 1158.21 101.576C1158.21 74.5541 1136.15 52.4902 1109.13 52.4902C1082.11 52.4902 1060.04 74.5541 1060.04 101.576C1060.04 128.598 1082.11 150.662 1109.13 150.662ZM1314.98 10.8416H1356.88V192.807H1311.51L1252.01 86.7017V192.807H1210.11V11.3374H1255.73L1314.98 117.194V10.8416ZM1517.38 7.86666H1559.28V124.136C1559.28 162.562 1527.79 192.807 1490.36 192.807H1489.62C1470.77 192.559 1453.92 185.121 1440.78 171.982C1427.89 158.843 1420.95 141.737 1421.19 122.896L1463.09 123.392C1463.09 130.829 1465.57 137.275 1470.77 142.729C1476.23 148.183 1482.67 150.91 1490.11 150.91C1504.74 150.91 1517.38 139.258 1517.38 123.888V7.86666ZM1688.1 192.807L1680.91 170.743H1623.64L1616.21 192.807H1571.83L1633.81 10.8416H1673.47L1732.23 192.807H1688.1ZM1638.02 128.846H1667.52L1653.14 84.7184L1638.02 128.846ZM1827.77 192.807L1798.52 145.704C1794.31 146.448 1790.09 146.696 1785.38 146.944V192.807H1743.49V11.3374H1785.38C1827.03 12.0811 1860.5 42.326 1860.5 79.0165C1860.5 98.6013 1851.82 115.707 1836.95 127.855L1877.11 192.807H1827.77ZM1785.38 53.4819V104.799C1803.48 104.055 1818.6 92.8994 1818.6 79.0165C1818.6 65.3815 1803.48 54.2256 1785.38 53.4819Z" fill="#081747"/>
</svg>
