<svg width="25" height="28" viewBox="0 0 25 28" fill="none" xmlns="http://www.w3.org/2000/svg">
<g id="Solid/Communication/Envelope">
<g id="Icon">
<path d="M7.78918 8.70351C10.9238 8.43102 14.0762 8.43102 17.2108 8.70351L18.7211 8.83479C19.7264 8.92219 20.5875 9.52186 21.0337 10.3796C21.0907 10.4894 21.0479 10.6222 20.9428 10.6873L14.6768 14.5663C13.333 15.3982 11.6384 15.4156 10.2777 14.6116L3.96989 10.8842C3.86798 10.824 3.8212 10.7 3.86713 10.5909C4.27529 9.62138 5.19292 8.9292 6.27895 8.83479L7.78918 8.70351Z" fill="#F8FFF9"/>
<path d="M3.862 12.5628C3.70603 12.4706 3.50703 12.5698 3.48885 12.75C3.23512 15.2657 3.29653 17.8051 3.67308 20.3092C3.8716 21.6293 4.94901 22.6414 6.27895 22.757L7.78918 22.8883C10.9238 23.1608 14.0762 23.1608 17.2108 22.8883L18.7211 22.757C20.051 22.6414 21.1284 21.6293 21.3269 20.3092C21.7145 17.7321 21.7682 15.1176 21.4882 12.5302C21.4685 12.3487 21.2662 12.2513 21.1109 12.3474L15.4664 15.8417C13.6482 16.9672 11.3556 16.9908 9.51462 15.903L3.862 12.5628Z" fill="#F8FFF9"/>
</g>
</g>
</svg>
