<svg width="31" height="31" viewBox="0 0 31 31" fill="none" xmlns="http://www.w3.org/2000/svg">
<g id="Solid/Brands/Facebook">
<path id="Union" d="M17.8942 4.52905C16.369 4.52905 14.9063 5.13492 13.8279 6.21338C12.7494 7.29184 12.1436 8.75454 12.1436 10.2797V13.4814H9.06617C8.91166 13.4814 8.78641 13.6067 8.78641 13.7612V17.9887C8.78641 18.1432 8.91166 18.2685 9.06617 18.2685H12.1436V26.9411C12.1436 27.0956 12.2688 27.2209 12.4233 27.2209H16.6508C16.8053 27.2209 16.9306 27.0956 16.9306 26.9411V18.2685H20.0352C20.1636 18.2685 20.2755 18.1811 20.3066 18.0566L21.3635 13.829C21.4077 13.6525 21.2741 13.4814 21.0921 13.4814H16.9306V10.2797C16.9306 10.0241 17.0321 9.77904 17.2128 9.59833C17.3935 9.41761 17.6386 9.31609 17.8942 9.31609H21.127C21.2815 9.31609 21.4068 9.19084 21.4068 9.03633V4.80881C21.4068 4.65431 21.2815 4.52905 21.127 4.52905H17.8942Z" fill="#F8FFF9"/>
</g>
</svg>
