<svg width="13" height="14" viewBox="0 0 13 14" fill="none" xmlns="http://www.w3.org/2000/svg">
<g id="fi-sr-info" clip-path="url(#clip0_388_1375)">
<path id="Vector" d="M6.5 13.5C7.78558 13.5 9.04229 13.1188 10.1112 12.4046C11.1801 11.6903 12.0132 10.6752 12.5052 9.48745C12.9972 8.29973 13.1259 6.99279 12.8751 5.73192C12.6243 4.47104 12.0052 3.31285 11.0962 2.40381C10.1872 1.49477 9.02896 0.875703 7.76809 0.624899C6.50721 0.374095 5.20028 0.502816 4.01256 0.994786C2.82484 1.48676 1.80968 2.31988 1.09545 3.3888C0.381218 4.45772 0 5.71442 0 7C0.00186392 8.72334 0.687282 10.3756 1.90586 11.5941C3.12445 12.8127 4.77667 13.4981 6.5 13.5ZM6.5 3.20834C6.6607 3.20834 6.81779 3.25599 6.9514 3.34527C7.08502 3.43455 7.18916 3.56144 7.25065 3.70991C7.31215 3.85837 7.32824 4.02174 7.29689 4.17935C7.26554 4.33696 7.18815 4.48173 7.07452 4.59536C6.96089 4.70899 6.81612 4.78637 6.65851 4.81772C6.5009 4.84907 6.33753 4.83298 6.18907 4.77149C6.04061 4.70999 5.91371 4.60585 5.82443 4.47224C5.73515 4.33862 5.6875 4.18153 5.6875 4.02084C5.6875 3.80535 5.7731 3.59869 5.92548 3.44631C6.07785 3.29394 6.28451 3.20834 6.5 3.20834ZM5.95833 5.91667H6.5C6.78732 5.91667 7.06287 6.03081 7.26603 6.23397C7.4692 6.43714 7.58333 6.71269 7.58333 7V10.25C7.58333 10.3937 7.52627 10.5314 7.42468 10.633C7.3231 10.7346 7.18533 10.7917 7.04167 10.7917C6.89801 10.7917 6.76023 10.7346 6.65865 10.633C6.55707 10.5314 6.5 10.3937 6.5 10.25V7H5.95833C5.81467 7 5.6769 6.94293 5.57532 6.84135C5.47374 6.73977 5.41667 6.602 5.41667 6.45834C5.41667 6.31468 5.47374 6.1769 5.57532 6.07532C5.6769 5.97374 5.81467 5.91667 5.95833 5.91667Z" fill="#F8FFF9"/>
</g>
<defs>
<clipPath id="clip0_388_1375">
<rect width="13" height="13" fill="white" transform="translate(0 0.5)"/>
</clipPath>
</defs>
</svg>
