<svg width="63" height="63" viewBox="0 0 63 63" fill="none" xmlns="http://www.w3.org/2000/svg">
<g id="Group">
<path id="Vector" fill-rule="evenodd" clip-rule="evenodd" d="M28.2266 5.76715C27.508 5.52729 26.746 5.4458 25.9929 5.52827C25.2399 5.61074 24.5135 5.85521 23.8639 6.2449L13.0489 12.7339C12.2715 13.2003 11.6281 13.8602 11.1814 14.6491C10.7348 15.438 10.5 16.3292 10.5 17.2358V52.5H7.875C7.17881 52.5 6.51113 52.7766 6.01884 53.2689C5.52656 53.7611 5.25 54.4288 5.25 55.125C5.25 55.8212 5.52656 56.4889 6.01884 56.9812C6.51113 57.4735 7.17881 57.75 7.875 57.75H55.125C55.8212 57.75 56.4889 57.4735 56.9812 56.9812C57.4734 56.4889 57.75 55.8212 57.75 55.125C57.75 54.4288 57.4734 53.7611 56.9812 53.2689C56.4889 52.7766 55.8212 52.5 55.125 52.5H52.5V17.64C52.4993 16.5389 52.1525 15.4659 51.5086 14.5728C50.8646 13.6796 49.9561 13.0115 48.9116 12.663L28.2266 5.76715ZM47.25 52.5V17.64L28.875 11.5185V52.5H47.25ZM23.625 12.5108L15.75 17.2358V52.5H23.625V12.5108Z" fill="#F8FFF9"/>
</g>
</svg>
