<svg width="30" height="31" viewBox="0 0 30 31" fill="none" xmlns="http://www.w3.org/2000/svg">
<g id="Solid/Brands/Instagram">
<g id="Subtract">
<path d="M15 11.8341C12.7682 11.8341 10.959 13.6433 10.959 15.8751C10.959 18.1069 12.7682 19.9161 15 19.9161C17.2318 19.9161 19.041 18.1069 19.041 15.8751C19.041 13.6433 17.2318 11.8341 15 11.8341Z" fill="#F8FFF9"/>
<path fill-rule="evenodd" clip-rule="evenodd" d="M8.49653 4.78589C12.7839 4.30672 17.2162 4.30672 21.5035 4.78589C23.864 5.04971 25.7678 6.90954 26.0449 9.27825C26.5575 13.6612 26.5575 18.089 26.0449 22.4719C25.7678 24.8406 23.864 26.7004 21.5035 26.9643C17.2162 27.4434 12.7839 27.4434 8.49653 26.9643C6.13609 26.7004 4.23222 24.8406 3.95518 22.4719C3.44255 18.089 3.44255 13.6612 3.95518 9.27825C4.23222 6.90954 6.13609 5.04971 8.49653 4.78589ZM21.2169 8.41476C20.5302 8.41476 19.9736 8.97144 19.9736 9.65814C19.9736 10.3448 20.5302 10.9015 21.2169 10.9015C21.9036 10.9015 22.4603 10.3448 22.4603 9.65814C22.4603 8.97144 21.9036 8.41476 21.2169 8.41476ZM9.09393 15.8751C9.09393 12.6132 11.7382 9.96899 15 9.96899C18.2619 9.96899 20.9061 12.6132 20.9061 15.8751C20.9061 19.1369 18.2619 21.7812 15 21.7812C11.7382 21.7812 9.09393 19.1369 9.09393 15.8751Z" fill="#F8FFF9"/>
</g>
</g>
</svg>
