<svg width="31" height="31" viewBox="0 0 31 31" fill="none" xmlns="http://www.w3.org/2000/svg">
<g id="Solid/Brands/Linkedin">
<g id="Union">
<path d="M6.82674 3.28577C5.36749 3.28577 4.18454 4.46872 4.18454 5.92796C4.18454 7.38721 5.36749 8.57016 6.82674 8.57016C8.28598 8.57016 9.46893 7.38721 9.46893 5.92796C9.46893 4.46872 8.28598 3.28577 6.82674 3.28577Z" fill="#F8FFF9"/>
<path d="M4.33996 10.7461C4.25413 10.7461 4.18454 10.8157 4.18454 10.9015V27.0655C4.18454 27.1514 4.25413 27.2209 4.33996 27.2209H9.31351C9.39935 27.2209 9.46893 27.1514 9.46893 27.0655V10.9015C9.46893 10.8157 9.39935 10.7461 9.31351 10.7461H4.33996Z" fill="#F8FFF9"/>
<path d="M12.422 10.7461C12.3361 10.7461 12.2666 10.8157 12.2666 10.9015V27.0655C12.2666 27.1514 12.3361 27.2209 12.422 27.2209H17.3955C17.4814 27.2209 17.5509 27.1514 17.5509 27.0655V18.3618C17.5509 17.7435 17.7966 17.1505 18.2338 16.7133C18.671 16.2761 19.264 16.0305 19.8823 16.0305C20.5006 16.0305 21.0936 16.2761 21.5308 16.7133C21.968 17.1505 22.2136 17.7435 22.2136 18.3618V27.0655C22.2136 27.1514 22.2832 27.2209 22.3691 27.2209H27.3426C27.4284 27.2209 27.498 27.1514 27.498 27.0655V16.3478C27.498 13.3305 24.8737 10.9699 21.8715 11.2428C20.9456 11.327 20.0302 11.5572 19.1754 11.9235L17.5509 12.6197V10.9015C17.5509 10.8157 17.4814 10.7461 17.3955 10.7461H12.422Z" fill="#F8FFF9"/>
</g>
</g>
</svg>
