<svg width="25" height="29" viewBox="0 0 25 29" fill="none" xmlns="http://www.w3.org/2000/svg">
<path d="M9.75 12.5918C9.75 10.7969 11.2051 9.3418 13 9.3418C14.7949 9.3418 16.25 10.7969 16.25 12.5918C16.25 14.3867 14.7949 15.8418 13 15.8418C11.2051 15.8418 9.75 14.3867 9.75 12.5918Z" fill="#F8FFF9"/>
<path fill-rule="evenodd" clip-rule="evenodd" d="M4.77354 11.4692C5.11718 7.30024 8.60097 4.0918 12.7841 4.0918H13.216C17.3991 4.0918 20.8829 7.30024 21.2265 11.4692C21.4115 13.7138 20.7182 15.9426 19.2925 17.6861L14.4995 23.5479C13.7245 24.4957 12.2756 24.4957 11.5006 23.5479L6.70752 17.6861C5.28187 15.9426 4.58852 13.7138 4.77354 11.4692ZM13 7.8418C10.3766 7.8418 8.25 9.96844 8.25 12.5918C8.25 15.2151 10.3766 17.3418 13 17.3418C15.6234 17.3418 17.75 15.2151 17.75 12.5918C17.75 9.96844 15.6234 7.8418 13 7.8418Z" fill="#F8FFF9"/>
</svg>
