<svg width="59" height="64" viewBox="0 0 59 64" fill="none" xmlns="http://www.w3.org/2000/svg">
<g id="majesticons:data-line">
<path id="Vector" d="M52.4266 18.875C52.4266 24.6763 41.8734 29.375 28.8587 29.375C15.844 29.375 5.29077 24.6763 5.29077 18.875M52.4266 18.875C52.4266 13.0738 41.8734 8.375 28.8587 8.375C15.844 8.375 5.29077 13.0738 5.29077 18.875M52.4266 18.875V32M5.29077 18.875V32M52.4266 32C52.4266 37.8012 41.8734 42.5 28.8587 42.5C15.844 42.5 5.29077 37.8012 5.29077 32M52.4266 32V45.125C52.4266 50.9263 41.8734 55.625 28.8587 55.625C15.844 55.625 5.29077 50.9263 5.29077 45.125V32" stroke="#F8FFF9" stroke-width="4" stroke-linecap="round" stroke-linejoin="round"/>
</g>
</svg>
