<svg width="50" height="50" viewBox="0 0 50 50" fill="none" xmlns="http://www.w3.org/2000/svg">
<g id="majesticons:data-line">
<path id="Vector" d="M41.375 14.5549C41.375 19.0669 33.1471 22.7215 23 22.7215C12.8529 22.7215 4.625 19.0669 4.625 14.5549M41.375 14.5549C41.375 10.0428 33.1471 6.38818 23 6.38818C12.8529 6.38818 4.625 10.0428 4.625 14.5549M41.375 14.5549V24.7632M4.625 14.5549V24.7632M41.375 24.7632C41.375 29.2753 33.1471 32.9299 23 32.9299C12.8529 32.9299 4.625 29.2753 4.625 24.7632M41.375 24.7632V34.9715C41.375 39.4836 33.1471 43.1382 23 43.1382C12.8529 43.1382 4.625 39.4836 4.625 34.9715V24.7632" stroke="#17412D" stroke-width="4" stroke-linecap="round" stroke-linejoin="round"/>
</g>
</svg>
