<svg width="25" height="25" viewBox="0 0 25 25" fill="none" xmlns="http://www.w3.org/2000/svg">
<g id="mdi:web" clip-path="url(#clip0_52_290)">
<path id="Vector" d="M14.86 14.2959C14.94 13.6359 15 12.9759 15 12.2959C15 11.6159 14.94 10.9559 14.86 10.2959H18.24C18.4 10.9359 18.5 11.6059 18.5 12.2959C18.5 12.9859 18.4 13.6559 18.24 14.2959M13.09 19.8559C13.69 18.7459 14.15 17.5459 14.47 16.2959H17.42C16.4512 17.9642 14.9141 19.2279 13.09 19.8559ZM12.84 14.2959H8.16C8.06 13.6359 8 12.9759 8 12.2959C8 11.6159 8.06 10.9459 8.16 10.2959H12.84C12.93 10.9459 13 11.6159 13 12.2959C13 12.9759 12.93 13.6359 12.84 14.2959ZM10.5 20.2559C9.67 19.0559 9 17.7259 8.59 16.2959H12.41C12 17.7259 11.33 19.0559 10.5 20.2559ZM6.5 8.2959H3.58C4.53864 6.62293 6.07466 5.35714 7.9 4.7359C7.3 5.8459 6.85 7.0459 6.5 8.2959ZM3.58 16.2959H6.5C6.85 17.5459 7.3 18.7459 7.9 19.8559C6.07827 19.2282 4.54429 17.9641 3.58 16.2959ZM2.76 14.2959C2.6 13.6559 2.5 12.9859 2.5 12.2959C2.5 11.6059 2.6 10.9359 2.76 10.2959H6.14C6.06 10.9559 6 11.6159 6 12.2959C6 12.9759 6.06 13.6359 6.14 14.2959M10.5 4.3259C11.33 5.5259 12 6.8659 12.41 8.2959H8.59C9 6.8659 9.67 5.5259 10.5 4.3259ZM17.42 8.2959H14.47C14.1565 7.05751 13.6931 5.862 13.09 4.7359C14.93 5.3659 16.46 6.6359 17.42 8.2959ZM10.5 2.2959C4.97 2.2959 0.5 6.7959 0.5 12.2959C0.5 14.9481 1.55357 17.4916 3.42893 19.367C4.35752 20.2956 5.45991 21.0321 6.67317 21.5347C7.88642 22.0372 9.18678 22.2959 10.5 22.2959C13.1522 22.2959 15.6957 21.2423 17.5711 19.367C19.4464 17.4916 20.5 14.9481 20.5 12.2959C20.5 10.9827 20.2413 9.68232 19.7388 8.46906C19.2362 7.25581 18.4997 6.15342 17.5711 5.22483C16.6425 4.29624 15.5401 3.55965 14.3268 3.0571C13.1136 2.55456 11.8132 2.2959 10.5 2.2959Z" fill="#F8FFF9"/>
</g>
<defs>
<clipPath id="clip0_52_290">
<rect width="24" height="24" fill="white" transform="translate(0.5 0.295898)"/>
</clipPath>
</defs>
</svg>
