<svg width="38" height="38" viewBox="0 0 38 38" fill="none" xmlns="http://www.w3.org/2000/svg">
<g id="mdi:teaching" clip-path="url(#clip0_21_733)">
<path id="Vector" d="M29.3333 26.4716C30.1511 26.4716 30.9353 26.1467 31.5136 25.5685C32.0918 24.9902 32.4167 24.206 32.4167 23.3882V6.42989C32.4167 5.61214 32.0918 4.82788 31.5136 4.24964C30.9353 3.67141 30.1511 3.34656 29.3333 3.34656H13.0842C13.6237 4.28697 13.9167 5.35072 13.9167 6.42989H29.3333V23.3882H15.4583V26.4716M21.625 11.0549V14.1382H12.375V34.1799H9.29167V24.9299H6.20833V34.1799H3.125V21.8466H0.8125V14.1382C0.8125 13.3205 1.13735 12.5362 1.71559 11.958C2.29382 11.3797 3.07808 11.0549 3.89583 11.0549H21.625ZM10.8333 6.42989C10.8333 7.24764 10.5085 8.0319 9.93025 8.61014C9.35201 9.18837 8.56775 9.51322 7.75 9.51322C6.93225 9.51322 6.14799 9.18837 5.56975 8.61014C4.99152 8.0319 4.66667 7.24764 4.66667 6.42989C4.66667 5.61214 4.99152 4.82788 5.56975 4.24964C6.14799 3.67141 6.93225 3.34656 7.75 3.34656C8.56775 3.34656 9.35201 3.67141 9.93025 4.24964C10.5085 4.82788 10.8333 5.61214 10.8333 6.42989Z" fill="#17412D"/>
</g>
<defs>
<clipPath id="clip0_21_733">
<rect width="37" height="37" fill="white" transform="translate(0.5 0.263184)"/>
</clipPath>
</defs>
</svg>
