<svg width="63" height="63" viewBox="0 0 63 63" fill="none" xmlns="http://www.w3.org/2000/svg">
<g id="mdi:teaching">
<path id="Vector" d="M49.0945 44.625C50.4869 44.625 51.8222 44.0719 52.8068 43.0873C53.7914 42.1027 54.3445 40.7674 54.3445 39.375V10.5C54.3445 9.10761 53.7914 7.77226 52.8068 6.78769C51.8222 5.80312 50.4869 5.25 49.0945 5.25H21.427C22.3457 6.85125 22.8445 8.6625 22.8445 10.5H49.0945V39.375H25.4695V44.625M35.9695 18.375V23.625H20.2195V57.75H14.9695V42H9.71948V57.75H4.46948V36.75H0.531982V23.625C0.531982 22.2326 1.08511 20.8973 2.06967 19.9127C3.05424 18.9281 4.3896 18.375 5.78198 18.375H35.9695ZM17.5945 10.5C17.5945 11.8924 17.0414 13.2277 16.0568 14.2123C15.0722 15.1969 13.7369 15.75 12.3445 15.75C10.9521 15.75 9.61674 15.1969 8.63217 14.2123C7.64761 13.2277 7.09448 11.8924 7.09448 10.5C7.09448 9.10761 7.64761 7.77226 8.63217 6.78769C9.61674 5.80312 10.9521 5.25 12.3445 5.25C13.7369 5.25 15.0722 5.80312 16.0568 6.78769C17.0414 7.77226 17.5945 9.10761 17.5945 10.5Z" fill="#F8FFF9"/>
</g>
</svg>
