<svg width="42" height="43" viewBox="0 0 42 43" fill="none" xmlns="http://www.w3.org/2000/svg">
<g id="mingcute:building-4-line" clip-path="url(#clip0_20_709)">
<g id="Group">
<path id="Vector" fill-rule="evenodd" clip-rule="evenodd" d="M16.8178 4.60791C16.3387 4.44801 15.8307 4.39368 15.3286 4.44866C14.8266 4.50363 14.3424 4.66662 13.9092 4.92641L6.69925 9.25241C6.18098 9.56337 5.75207 10.0033 5.45429 10.5292C5.1565 11.0552 4.99999 11.6493 5 12.2537V35.7632H3.25C2.78587 35.7632 2.34075 35.9475 2.01256 36.2757C1.68437 36.6039 1.5 37.049 1.5 37.5132C1.5 37.9773 1.68437 38.4224 2.01256 38.7506C2.34075 39.0788 2.78587 39.2632 3.25 39.2632H34.75C35.2141 39.2632 35.6592 39.0788 35.9874 38.7506C36.3156 38.4224 36.5 37.9773 36.5 37.5132C36.5 37.049 36.3156 36.6039 35.9874 36.2757C35.6592 35.9475 35.2141 35.7632 34.75 35.7632H33V12.5232C32.9996 11.7891 32.7683 11.0738 32.339 10.4783C31.9097 9.88288 31.3041 9.43749 30.6077 9.20516L16.8178 4.60791ZM29.5 35.7632V12.5232L17.25 8.44216V35.7632H29.5ZM13.75 9.10366L8.5 12.2537V35.7632H13.75V9.10366Z" fill="#17412D"/>
</g>
</g>
<defs>
<clipPath id="clip0_20_709">
<rect width="42" height="42" fill="white" transform="translate(0 0.763184)"/>
</clipPath>
</defs>
</svg>
