<svg width="19" height="20" viewBox="0 0 19 20" fill="none" xmlns="http://www.w3.org/2000/svg">
<g id="octicon:goal-16">
<path id="Vector" d="M16.1939 3.30608L18.1842 3.70389C18.2911 3.72527 18.3789 3.80364 18.4098 3.90933C18.4254 3.96067 18.4268 4.01528 18.4138 4.06734C18.4009 4.11941 18.374 4.16699 18.3362 4.20502L16.7057 5.83664C16.5104 6.03092 16.2462 6.14017 15.9707 6.14064H14.6181L11.2219 9.53808C11.2867 9.78273 11.2986 10.0384 11.2568 10.288C11.2151 10.5376 11.1206 10.7755 10.9797 10.9857C10.8388 11.196 10.6547 11.3738 10.4398 11.5073C10.2248 11.6408 9.98377 11.727 9.73286 11.7601C9.48194 11.7932 9.22686 11.7724 8.9846 11.6992C8.74234 11.6259 8.51847 11.5019 8.32789 11.3354C8.13732 11.1689 7.98442 10.9636 7.87939 10.7334C7.77435 10.5031 7.71959 10.2531 7.71875 10C7.71869 9.72669 7.78154 9.45701 7.90242 9.21186C8.02331 8.96671 8.19899 8.75267 8.41587 8.58631C8.63275 8.41995 8.885 8.30573 9.1531 8.2525C9.4212 8.19927 9.69796 8.20845 9.96194 8.27933L13.3594 4.88071V3.53052C13.3594 3.25502 13.4686 2.99021 13.6634 2.79546L15.295 1.16383C15.333 1.12598 15.3806 1.09915 15.4327 1.08619C15.4847 1.07322 15.5393 1.07461 15.5907 1.09021C15.6964 1.12108 15.7747 1.20896 15.7961 1.31583L16.1939 3.30608Z" fill="#F8FFF9"/>
<path id="Vector_2" d="M2.37507 9.99995C2.37629 11.0188 2.596 12.0255 3.01937 12.9522C3.44274 13.8789 4.05993 14.704 4.82931 15.3719C5.59868 16.0398 6.50235 16.5349 7.47935 16.8239C8.45634 17.1128 9.48394 17.1889 10.4928 17.0469C11.5017 16.9049 12.4684 16.5483 13.3278 16.0009C14.1871 15.4536 14.919 14.7283 15.4742 13.8741C16.0294 13.0198 16.395 12.0564 16.5462 11.0489C16.6974 10.0413 16.6307 9.01305 16.3508 8.03345C16.3115 7.919 16.2958 7.79775 16.3049 7.67708C16.3139 7.5564 16.3475 7.43884 16.4034 7.33153C16.4593 7.22422 16.5365 7.12942 16.6302 7.0529C16.724 6.97637 16.8323 6.91973 16.9487 6.88641C17.065 6.85309 17.1869 6.8438 17.3069 6.85909C17.427 6.87439 17.5426 6.91395 17.6469 6.97538C17.7512 7.0368 17.8418 7.1188 17.9134 7.21639C17.9849 7.31398 18.0359 7.4251 18.0631 7.54301C18.6053 9.44007 18.5023 11.4634 17.7704 13.2957C17.0384 15.1279 15.719 16.6653 14.019 17.6667C12.319 18.6681 10.3347 19.0768 8.37735 18.8288C6.42 18.5807 4.60038 17.6899 3.20395 16.2961C1.80904 14.9 0.917268 13.0802 0.668639 11.1224C0.42001 9.16459 0.828606 7.17965 1.83027 5.47922C2.83194 3.77879 4.36996 2.45916 6.20285 1.72751C8.03575 0.995868 10.0597 0.893641 11.957 1.43688C12.1829 1.50292 12.3735 1.6557 12.4871 1.86183C12.6007 2.06796 12.6281 2.31069 12.5633 2.53695C12.4985 2.76322 12.3468 2.95464 12.1413 3.06937C11.9358 3.18411 11.6932 3.21283 11.4666 3.14926C10.4056 2.8446 9.2884 2.79062 8.20303 2.99156C7.11765 3.1925 6.0938 3.64287 5.21224 4.30715C4.33068 4.97143 3.61551 5.83145 3.12315 6.81938C2.63079 7.80731 2.37469 8.89612 2.37507 9.99995Z" fill="#F8FFF9"/>
<path id="Vector_3" d="M5.93758 10.0001C5.93765 10.6491 6.11493 11.2859 6.4503 11.8416C6.78567 12.3973 7.2664 12.8509 7.84063 13.1535C8.41487 13.4561 9.06082 13.5961 9.7088 13.5586C10.3568 13.521 10.9822 13.3072 11.5176 12.9403C12.053 12.5725 12.4775 12.0653 12.7454 11.4736C13.0133 10.8819 13.1144 10.2282 13.0376 9.58325C13.0169 9.42674 13.0382 9.26752 13.0994 9.122C13.1607 8.97647 13.2596 8.84989 13.386 8.7553C13.5124 8.66071 13.6617 8.60152 13.8186 8.58382C13.9755 8.56612 14.1343 8.59056 14.2786 8.65462C14.4228 8.71785 14.5478 8.8182 14.6406 8.94546C14.7334 9.07271 14.7909 9.22231 14.807 9.379C14.936 10.4811 14.7188 11.5961 14.1854 12.5691C13.652 13.5421 12.8289 14.325 11.8304 14.809C10.8318 15.293 9.7074 15.4542 8.61313 15.2701C7.51886 15.086 6.50902 14.5659 5.72379 13.7818C4.93855 12.9978 4.41687 11.9888 4.23115 10.8948C4.04542 9.80077 4.20487 8.67609 4.68736 7.67683C5.16985 6.67757 5.95145 5.8533 6.92367 5.31842C7.89589 4.78354 9.01052 4.56458 10.1128 4.69193C10.2309 4.70289 10.3455 4.73729 10.4501 4.79313C10.5546 4.84897 10.647 4.92512 10.7218 5.01711C10.7965 5.10911 10.8521 5.21511 10.8854 5.32888C10.9187 5.44266 10.9289 5.56193 10.9154 5.67971C10.902 5.79748 10.8652 5.91139 10.8071 6.01475C10.7491 6.11812 10.671 6.20886 10.5775 6.28165C10.4839 6.35445 10.3768 6.40783 10.2623 6.43868C10.1479 6.46953 10.0284 6.47723 9.91095 6.46131C9.4118 6.40335 8.90603 6.45165 8.42686 6.60304C7.9477 6.75442 7.50598 7.00546 7.13072 7.33967C6.75546 7.67388 6.45515 8.0837 6.24952 8.54221C6.04388 9.00072 5.93758 9.49755 5.93758 10.0001Z" fill="#F8FFF9"/>
</g>
</svg>
