<svg width="50" height="43" viewBox="0 0 50 43" fill="none" xmlns="http://www.w3.org/2000/svg">
<g id="ph:path-bold">
<path id="Vector" d="M32.8125 27.6694C31.5915 27.6711 30.401 28.0505 29.4041 28.7554C28.4072 29.4603 27.6528 30.4564 27.2442 31.6069H11.8125C10.5942 31.6069 9.42572 31.123 8.56423 30.2615C7.70273 29.4 7.21875 28.2315 7.21875 27.0132C7.21875 25.7948 7.70273 24.6264 8.56423 23.7649C9.42572 22.9034 10.5942 22.4194 11.8125 22.4194H27.5625C29.477 22.4194 31.3131 21.6589 32.6669 20.3051C34.0207 18.9513 34.7812 17.1152 34.7812 15.2007C34.7812 13.2862 34.0207 11.45 32.6669 10.0963C31.3131 8.74248 29.477 7.98193 27.5625 7.98193H11.8125C11.2904 7.98193 10.7896 8.18935 10.4204 8.55857C10.0512 8.92778 9.84375 9.42854 9.84375 9.95068C9.84375 10.4728 10.0512 10.9736 10.4204 11.3428C10.7896 11.712 11.2904 11.9194 11.8125 11.9194H27.5625C28.4327 11.9194 29.2673 12.2651 29.8827 12.8805C30.498 13.4958 30.8437 14.3304 30.8437 15.2007C30.8437 16.0709 30.498 16.9055 29.8827 17.5209C29.2673 18.1362 28.4327 18.4819 27.5625 18.4819H11.8125C9.54987 18.4819 7.37991 19.3808 5.77999 20.9807C4.18008 22.5806 3.28125 24.7506 3.28125 27.0132C3.28125 29.2758 4.18008 31.4458 5.77999 33.0457C7.37991 34.6456 9.54987 35.5444 11.8125 35.5444H27.2442C27.6052 36.5653 28.2398 37.4673 29.0788 38.1519C29.9177 38.8364 30.9287 39.2772 32.0013 39.4259C33.0738 39.5747 34.1666 39.4257 35.1602 38.9953C36.1539 38.565 37.01 37.8697 37.6352 36.9856C38.2603 36.1015 38.6304 35.0625 38.7049 33.9823C38.7795 32.902 38.5556 31.8221 38.0578 30.8605C37.56 29.8988 36.8074 29.0926 35.8824 28.5298C34.9573 27.967 33.8953 27.6694 32.8125 27.6694ZM32.8125 35.5444C32.4231 35.5444 32.0425 35.429 31.7187 35.2126C31.395 34.9963 31.1426 34.6888 30.9936 34.3291C30.8446 33.9693 30.8056 33.5735 30.8816 33.1916C30.9575 32.8097 31.145 32.4589 31.4204 32.1836C31.6957 31.9082 32.0465 31.7207 32.4284 31.6448C32.8103 31.5688 33.2062 31.6078 33.5659 31.7568C33.9256 31.9058 34.2331 32.1581 34.4495 32.4819C34.6658 32.8057 34.7812 33.1863 34.7812 33.5757C34.7812 34.0978 34.5738 34.5986 34.2046 34.9678C33.8354 35.337 33.3346 35.5444 32.8125 35.5444Z" fill="#17412D"/>
</g>
</svg>
