<svg width="63" height="63" viewBox="0 0 63 63" fill="none" xmlns="http://www.w3.org/2000/svg">
<g id="ph:path-bold">
<path id="Vector" d="M45.6665 40.375C43.9438 40.3776 42.264 40.9435 40.8575 41.9953C39.4509 43.0471 38.3865 44.5333 37.81 46.25H16.037C14.318 46.25 12.6694 45.5279 11.4539 44.2425C10.2384 42.9571 9.55553 41.2137 9.55553 39.3958C9.55553 37.578 10.2384 35.8346 11.4539 34.5492C12.6694 33.2638 14.318 32.5417 16.037 32.5417H38.2591C40.9603 32.5417 43.551 31.4069 45.4611 29.387C47.3711 27.367 48.4442 24.6274 48.4442 21.7708C48.4442 18.9142 47.3711 16.1746 45.4611 14.1547C43.551 12.1348 40.9603 11 38.2591 11H16.037C15.3003 11 14.5937 11.3095 14.0728 11.8604C13.5519 12.4113 13.2592 13.1584 13.2592 13.9375C13.2592 14.7166 13.5519 15.4637 14.0728 16.0146C14.5937 16.5655 15.3003 16.875 16.037 16.875H38.2591C39.4869 16.875 40.6645 17.3908 41.5327 18.309C42.4009 19.2271 42.8887 20.4724 42.8887 21.7708C42.8887 23.0693 42.4009 24.3146 41.5327 25.2327C40.6645 26.1509 39.4869 26.6667 38.2591 26.6667H16.037C12.8446 26.6667 9.78292 28.0078 7.52555 30.395C5.26818 32.7821 4 36.0198 4 39.3958C4 42.7718 5.26818 46.0095 7.52555 48.3967C9.78292 50.7839 12.8446 52.125 16.037 52.125H37.81C38.3193 53.6482 39.2147 54.9941 40.3984 56.0155C41.5821 57.0369 43.0086 57.6945 44.5219 57.9164C46.0352 58.1384 47.577 57.9161 48.979 57.274C50.3809 56.6318 51.5888 55.5944 52.4709 54.2753C53.3529 52.9561 53.8751 51.4059 53.9802 49.7941C54.0854 48.1823 53.7695 46.571 53.0672 45.1362C52.3648 43.7014 51.303 42.4984 49.9978 41.6587C48.6926 40.819 47.1942 40.3749 45.6665 40.375ZM45.6665 52.125C45.1171 52.125 44.58 51.9527 44.1232 51.6299C43.6664 51.3072 43.3104 50.8484 43.1001 50.3116C42.8899 49.7749 42.8349 49.1842 42.9421 48.6144C43.0492 48.0446 43.3138 47.5212 43.7023 47.1104C44.0908 46.6996 44.5857 46.4198 45.1245 46.3064C45.6634 46.1931 46.2219 46.2513 46.7295 46.4736C47.237 46.6959 47.6708 47.0724 47.9761 47.5555C48.2813 48.0386 48.4442 48.6065 48.4442 49.1875C48.4442 49.9666 48.1516 50.7137 47.6306 51.2646C47.1097 51.8155 46.4032 52.125 45.6665 52.125Z" fill="#F8FFF9"/>
</g>
</svg>
