<svg width="25" height="28" viewBox="0 0 25 28" fill="none" xmlns="http://www.w3.org/2000/svg">
<path d="M3.50017 13.6564C5.41657 17.8303 8.82657 21.1488 13.0661 22.9478L13.7457 23.2506C15.3005 23.9434 17.1283 23.4171 18.0766 22.0036L18.9647 20.6799C19.2534 20.2495 19.1655 19.6698 18.7622 19.3444L15.7503 16.9146C15.3079 16.5577 14.6574 16.6409 14.319 17.0975L13.3873 18.3548C10.9965 17.1754 9.05541 15.2344 7.87607 12.8436L9.13332 11.9119C9.58998 11.5734 9.67311 10.9229 9.31622 10.4805L6.88635 7.4686C6.561 7.06531 5.9815 6.97735 5.55113 7.26592L4.21829 8.15961C2.79595 9.11332 2.27257 10.9562 2.9813 12.5151L3.49939 13.6547L3.50017 13.6564Z" fill="#F8FFF9"/>
</svg>
