<svg width="19" height="20" viewBox="0 0 19 20" fill="none" xmlns="http://www.w3.org/2000/svg">
<g id="Solid/Interface/Stack">
<g id="Icon">
<path d="M10.3225 3.33571C9.84787 3.08801 9.19598 3.08429 8.71807 3.3311C6.67665 4.3854 4.82678 5.59335 3.20705 6.93174C2.99107 7.11022 2.84813 7.36001 2.85058 7.64553C2.85302 7.93007 2.9992 8.17708 3.21447 8.35311C4.82116 9.66683 6.67312 10.8762 8.67743 11.9223C9.15202 12.17 9.80391 12.1737 10.2818 11.9269C12.3232 10.8726 14.1731 9.66465 15.7928 8.32625C16.0088 8.14778 16.1518 7.89798 16.1493 7.61246C16.1469 7.32792 16.0007 7.08091 15.7854 6.90489C14.1787 5.59116 12.3268 4.38179 10.3225 3.33571Z" fill="#F8FFF9"/>
<path d="M16.5917 11.3707C16.8699 11.1971 16.9546 10.8308 16.7809 10.5526C16.6073 10.2745 16.241 10.1898 15.9628 10.3634L11.1279 13.382C10.6973 13.6509 10.1121 13.8008 9.4998 13.8008C8.88749 13.8008 8.3023 13.651 7.87151 13.3821L3.08959 10.3978C2.8114 10.2241 2.44514 10.3089 2.27152 10.5871C2.09791 10.8653 2.18268 11.2316 2.46087 11.4052L7.24279 14.3896C7.89898 14.7991 8.71301 14.9884 9.49987 14.9883C10.2867 14.9883 11.1007 14.7989 11.7568 14.3893L16.5917 11.3707Z" fill="#F8FFF9"/>
<path d="M16.5918 14.3432C16.8699 14.1695 16.9546 13.8032 16.7809 13.5251C16.6072 13.2469 16.2409 13.1623 15.9628 13.336L11.7757 15.9507C11.1639 16.3328 10.3454 16.5394 9.49977 16.5394C8.65412 16.5395 7.83559 16.333 7.22362 15.951L3.08965 13.3703C2.81148 13.1966 2.44521 13.2814 2.27156 13.5595C2.09791 13.8377 2.18264 14.204 2.46081 14.3776L6.59478 16.9583C7.43219 17.4811 8.47961 17.727 9.49984 17.7269C10.5201 17.7268 11.5674 17.4808 12.4047 16.958L16.5918 14.3432Z" fill="#F8FFF9"/>
</g>
</g>
</svg>
