<svg width="24" height="25" viewBox="0 0 24 25" fill="none" xmlns="http://www.w3.org/2000/svg">
<path d="M12 1.75C12.4142 1.75 12.75 2.08579 12.75 2.5V3.5C12.75 3.91421 12.4142 4.25 12 4.25C11.5858 4.25 11.25 3.91421 11.25 3.5V2.5C11.25 2.08579 11.5858 1.75 12 1.75Z" fill="#70D460"/>
<path d="M12 6.75C8.82436 6.75 6.25 9.32436 6.25 12.5C6.25 15.6756 8.82436 18.25 12 18.25C15.1756 18.25 17.75 15.6756 17.75 12.5C17.75 9.32436 15.1756 6.75 12 6.75Z" fill="#70D460"/>
<path d="M5.45928 4.89862C5.16638 4.60573 4.69151 4.60573 4.39862 4.89862C4.10572 5.19152 4.10572 5.66639 4.39862 5.95929L5.10572 6.66639C5.39862 6.95929 5.87349 6.95929 6.16638 6.66639C6.45928 6.3735 6.45928 5.89862 6.16638 5.60573L5.45928 4.89862Z" fill="#70D460"/>
<path d="M22.75 12.5C22.75 12.9142 22.4142 13.25 22 13.25H21C20.5858 13.25 20.25 12.9142 20.25 12.5C20.25 12.0858 20.5858 11.75 21 11.75H22C22.4142 11.75 22.75 12.0858 22.75 12.5Z" fill="#70D460"/>
<path d="M19.6014 5.95928C19.8943 5.66638 19.8943 5.19151 19.6014 4.89862C19.3085 4.60572 18.8336 4.60572 18.5407 4.89862L17.8336 5.60572C17.5407 5.89862 17.5407 6.37349 17.8336 6.66638C18.1265 6.95928 18.6014 6.95928 18.8943 6.66638L19.6014 5.95928Z" fill="#70D460"/>
<path d="M12 20.75C12.4142 20.75 12.75 21.0858 12.75 21.5V22.5C12.75 22.9142 12.4142 23.25 12 23.25C11.5858 23.25 11.25 22.9142 11.25 22.5V21.5C11.25 21.0858 11.5858 20.75 12 20.75Z" fill="#70D460"/>
<path d="M18.8943 18.3336C18.6014 18.0407 18.1266 18.0407 17.8337 18.3336C17.5408 18.6265 17.5408 19.1014 17.8337 19.3943L18.5408 20.1014C18.8337 20.3943 19.3085 20.3943 19.6014 20.1014C19.8943 19.8085 19.8943 19.3336 19.6014 19.0407L18.8943 18.3336Z" fill="#70D460"/>
<path d="M3.75 12.5C3.75 12.9142 3.41421 13.25 3 13.25H2C1.58579 13.25 1.25 12.9142 1.25 12.5C1.25 12.0858 1.58579 11.75 2 11.75H3C3.41421 11.75 3.75 12.0858 3.75 12.5Z" fill="#70D460"/>
<path d="M6.16632 19.3943C6.45921 19.1014 6.45921 18.6265 6.16632 18.3336C5.87342 18.0407 5.39855 18.0407 5.10566 18.3336L4.39855 19.0407C4.10566 19.3336 4.10566 19.8085 4.39855 20.1014C4.69144 20.3943 5.16632 20.3943 5.45921 20.1014L6.16632 19.3943Z" fill="#70D460"/>
</svg>
