<svg width="23" height="24" viewBox="0 0 23 24" fill="none" xmlns="http://www.w3.org/2000/svg">
<path fill-rule="evenodd" clip-rule="evenodd" d="M11.8405 3.72597C11.6072 3.65975 11.3611 3.65981 11.1278 3.72622C10.6309 3.86762 10.1293 3.99858 9.62603 4.12999C7.38002 4.71641 4.90704 5.3621 2.79157 7.08838L1.79416 7.9023C0.998802 8.55133 0.999221 9.82241 1.79527 10.4708L2.77655 11.27C3.50149 11.8605 4.25702 12.3224 5.03127 12.699V17.1351C5.03127 18.2212 5.69752 19.196 6.70941 19.5905L10.5427 21.085C11.1584 21.325 11.8417 21.325 12.4573 21.085L16.2906 19.5905C17.3025 19.196 17.9688 18.2212 17.9688 17.1351V12.707C18.7379 12.3323 19.4884 11.8728 20.2085 11.2852L20.3646 11.1578V15.8951C20.3646 16.2921 20.6864 16.6139 21.0834 16.6139C21.4803 16.6139 21.8021 16.2921 21.8021 15.8951V9.18678C21.8019 8.70683 21.6028 8.22696 21.2048 7.90277L20.2235 7.10353C18.0926 5.36797 15.5157 4.69589 13.3393 4.12824C12.8371 3.99726 12.3365 3.86671 11.8405 3.72597ZM7.95336 12.8402C7.58935 12.6818 7.16591 12.8486 7.00759 13.2126C6.84926 13.5766 7.01601 14.0001 7.38002 14.1584C8.60463 14.691 9.87228 15.1268 11.1714 15.4602C11.3978 15.5183 11.6352 15.5183 11.8616 15.46C13.1572 15.1265 14.4211 14.6907 15.6418 14.158C16.0056 13.9993 16.1719 13.5756 16.0131 13.2118C15.8543 12.848 15.4307 12.6818 15.0669 12.8405C13.9201 13.3409 12.7329 13.7506 11.516 14.0646C10.2954 13.7506 9.10423 13.3407 7.95336 12.8402Z" fill="#17412D"/>
</svg>
