<svg width="20" height="20" viewBox="0 0 20 20" fill="none" xmlns="http://www.w3.org/2000/svg">
<g id="Solid/Communication/User">
<g id="Icon">
<path d="M10.0001 3.125C8.27419 3.125 6.87508 4.52411 6.87508 6.25C6.87508 7.97589 8.27419 9.375 10.0001 9.375C11.726 9.375 13.1251 7.97589 13.1251 6.25C13.1251 4.52411 11.726 3.125 10.0001 3.125Z" fill="#F8FFF9"/>
<path d="M6.66675 11.0417C4.94086 11.0417 3.54175 12.4408 3.54175 14.1667V15.1569C3.54175 15.7846 3.99665 16.3198 4.61614 16.4209C8.18183 17.0031 11.8183 17.0031 15.384 16.4209C16.0035 16.3198 16.4584 15.7846 16.4584 15.1569V14.1667C16.4584 12.4408 15.0593 11.0417 13.3334 11.0417H13.0494C12.8956 11.0417 12.7428 11.066 12.5967 11.1137L11.8754 11.3492C10.6569 11.7471 9.34331 11.7471 8.12474 11.3492L7.40348 11.1137C7.25733 11.066 7.10455 11.0417 6.95081 11.0417H6.66675Z" fill="#F8FFF9"/>
</g>
</g>
</svg>
